<?xml version="1.0" standalone="no"?>
<!DOCTYPE svg PUBLIC "-//W3C//DTD SVG 1.1//EN" "http://www.w3.org/Graphics/SVG/1.1/DTD/svg11.dtd" >
<!--
2013-9-30: Created.
-->
<svg>
<metadata>
Created by iconfont
</metadata>
<defs>

<font id="pt" horiz-adv-x="1024" >
  <font-face
    font-family="pt"
    font-weight="500"
    font-stretch="normal"
    units-per-em="1024"
    ascent="896"
    descent="-128"
  />
    <missing-glyph />
    
    <glyph glyph-name="luojiku" unicode="&#59241;" d="M512 901.33333333C265.216 901.33333333 3.072 828.18133333 0 692.50133333v-608.896C6.4-50.410666669999955 266.88-122.66666667000004 512-122.66666667000004c245.184 0 505.6 72.256 511.872 206.208L1024 689.49333333V690.13333333C1024 827.28533333 760.192 901.33333333 512 901.33333333zM64 389.33333333c85.056-68.16 249.216-112.32 448-112.32s362.944 44.16 448 112.32v-110.784C938.496 207.12533333 760.512 133.33333332999996 512 133.33333332999996c-248.576 0-426.56 73.856-448 145.28V389.33333333z m448-57.6c-248.576 0-426.56 68.352-448 134.4V587.73333333c93.44-67.072 274.56-102.4 448-102.4s354.56 35.328 448 102.4v-121.6c-21.504-66.112-199.488-134.4-448-134.4zM512 850.13333333c256.384 0 448-84.48 448-160s-191.616-160-448-160-448 84.48-448 160S255.616 850.13333333 512 850.13333333zM64 86.61333333000005V197.33333332999996c85.056-70.464 249.216-116.16 448-116.16S874.944 126.93333332999998 960 197.33333332999996v-110.72C931.2 14.549333329999968 749.056-58.66666667000004 512-58.66666667000004s-419.2 73.152-448 145.28z"  horiz-adv-x="1024" />

    
    <glyph glyph-name="baobiaoshejiqi" unicode="&#59198;" d="M374.7375 564.548799l320.833505-8.187139c8.187139 0 20.531809-4.093569 24.68934-16.43824l156.259222-287.893063c8.251101-16.502202 8.251101-32.940442 0-41.127581l-329.020644-329.020644c-12.34467-12.34467-28.78291-12.34467-41.127581 0l-304.331303 304.331304a31.981011 31.981011 0 0 0-8.251101 32.876479L341.86102 548.110559c8.251101 8.251101 16.43824 16.43824 32.87648 16.43824z m20.595771-61.65939L255.51229 214.996346l243.695305-243.695306 4.861114 145.193791c-12.792405 3.262063-25.073113 9.274493-35.818732 18.101253l-7.099785 6.396202a93.064743 93.064743 0 1 0 100.612262-20.531809l-4.669228-138.477779 257.766951 257.702989-139.884944 254.952622-279.641962 8.2511zM662.502639 896a127.924045 127.924045 0 0 0 127.924045-127.924045v-34.987226a127.924045 127.924045 0 0 0-127.924045-127.924046H394.949499a127.924045 127.924045 0 0 0-127.924045 127.924046V768.075955a127.924045 127.924045 0 0 0 127.924045 127.924045h267.617102z m5.756582-58.205441H389.128955a63.962023 63.962023 0 0 1-63.514289-56.478465l-0.447734-7.419595v-46.564352a63.962023 63.962023 0 0 1 56.542428-63.578251l7.419595-0.383772h279.25819a63.962023 63.962023 0 0 1 63.514289 56.478466l0.447734 7.483557V773.832537a63.962023 63.962023 0 0 1-63.962023 63.962022z"  horiz-adv-x="1024" />

    
    <glyph glyph-name="baobiaochaxun" unicode="&#59199;" d="M739.52 401.664c137.472 0 248.896-110.656 248.896-247.168a245.12 245.12 0 0 0-49.536-148.032l74.624-74.112c13.44-13.312 14.08-34.688 1.344-48.64a35.712 35.712 0 0 0-48.896-3.712l-2.688 2.368-74.688 74.24c-43.008-32-95.36-49.28-149.056-49.28-137.472 0-248.896 110.72-248.896 247.168 0 136.512 111.424 247.168 248.896 247.168zM699.648 896c71.872 0 129.472-55.68 132.224-124.288l0.128-5.12v-282.496c0-18.88-15.872-34.368-36.032-35.264-20.096-0.896-37.504 13.12-39.424 31.872l-0.192 3.392V766.528a58.048 58.048 0 0 1-52.928 58.688l-3.84 0.192H132.416a57.728 57.728 0 0 1-56.576-54.784l-0.128-4.096v-706.176c0-31.616 23.808-56.64 52.928-58.688l3.84-0.128H416c20.16 0 36.8-14.784 37.76-33.6 0.96-18.816-14.08-35.072-34.112-36.864l-3.648-0.192H132.352c-71.872 0-129.472 55.68-132.224 124.288L0 60.352V766.528C0 835.84 55.872 893.12 126.976 896L132.352 896h567.296z m39.872-564.928a177.152 177.152 0 0 1-177.792-176.576 177.152 177.152 0 0 1 177.792-176.512 177.152 177.152 0 0 1 177.792 176.512 177.152 177.152 0 0 1-177.792 176.576z m-261.76 200.064c18.88 0 34.24-15.808 34.24-35.264 0-19.52-15.36-35.328-34.304-35.328H226.304A34.816 34.816 0 0 0 192 495.872c0 19.456 15.36 35.264 34.304 35.264h251.392z m128.64 188.352c18.56 0 33.6-15.808 33.6-35.328a34.496 34.496 0 0 0-33.6-35.328h-380.8A34.496 34.496 0 0 0 192 684.16c0 19.52 15.04 35.328 33.6 35.328h380.8z"  horiz-adv-x="1024" />

    
    <glyph glyph-name="baobiaozhongxin1" unicode="&#59200;" d="M165.888 191.872c17.792 0 32.256-16.256 32.256-36.352v-247.168c0-20.096-14.464-36.352-32.256-36.352-17.856 0-32.256 16.32-32.256 36.352V155.52c2.56 18.752 15.616 33.408 32.256 36.352z m258.048 128c17.472 0 31.808-16.448 32.32-37.056v-372.736c0-21.056-14.464-38.08-32.256-38.08-17.856 0-32.32 17.024-32.32 38.08V282.816c0.512 20.608 14.784 36.992 32.256 36.992z m274.24 122.496a42.496 42.496 0 0 0 16.128-34.56v-495.808c0-22.08-14.464-40-32.256-40s-32.256 17.92-32.256 40V407.68c0 14.336 6.144 27.52 16.128 34.624a26.944 26.944 0 0 0 32.256 0z m258.048 128a42.496 42.496 0 0 0 16.192-34.624v-623.744c0-22.08-14.464-40-32.32-40-17.792 0-32.256 17.92-32.256 40V535.68c0 14.272 6.144 27.456 16.128 34.56a26.944 26.944 0 0 0 32.256 0zM960.064 896a64 64 0 0 0 63.488-56.512L1024 832.576v-160.448a32 32 0 0 0-32-32h-0.512a32 32 0 0 0-32 32l-0.064 114.88L602.56 430.08a32 32 0 0 0-45.248 0L397.44 589.952l-339.264-339.2a32 32 0 0 0-45.248 0l-0.384 0.32a32 32 0 0 0 0 45.248L374.4 658.176a32 32 0 0 0 45.248 0l159.872-159.808L913.28 832.064h-115.328a32 32 0 0 0 0 63.936H960z"  horiz-adv-x="1024" />

    
    <glyph glyph-name="caidanzuzuhu" unicode="&#59201;" d="M335.790131 448.279825h-223.860087C50.20862 448.279825 0 498.488445 0 560.209869v223.860087C0 845.79138 50.20862 896 111.930044 896h223.860087C397.511555 896 447.720175 845.79138 447.720175 784.069956v-223.860087C447.720175 498.488445 397.511555 448.279825 335.790131 448.279825zM383.76015 778.761274A53.342661 53.342661 0 0 1 330.481449 832.039975H117.238726A53.406621 53.406621 0 0 1 63.960025 778.761274v-213.242723c0-29.421611 23.921049-53.278701 53.278701-53.278701h213.242723C359.903061 512.23985 383.76015 536.160899 383.76015 565.518551V778.761274zM335.790131-127.3604h-223.860087C50.20862-127.3604 0-77.21574 0-15.430356v223.860087C0 270.151156 50.20862 320.359775 111.930044 320.359775h223.860087C397.511555 320.359775 447.720175 270.151156 447.720175 208.429731v-223.860087C447.720175-77.21574 397.511555-127.3604 335.790131-127.3604zM383.76015 203.121049A53.342661 53.342661 0 0 1 330.481449 256.39975H117.238726a53.406621 53.406621 0 0 1-53.278701-53.278701v-213.242723c0-29.421611 23.921049-53.278701 53.278701-53.278701h213.242723c29.421611 0 53.278701 23.921049 53.278701 53.278701v213.242723zM911.430356 448.279825h-223.860087C625.848844 448.279825 575.640225 498.488445 575.640225 560.209869v223.860087C575.640225 845.79138 625.848844 896 687.570269 896h223.860087C973.15178 896 1023.3604 845.79138 1023.3604 784.069956v-223.860087C1023.3604 498.488445 973.15178 448.279825 911.430356 448.279825zM959.400375 778.761274A53.342661 53.342661 0 0 1 906.121674 832.039975h-213.242723a53.406621 53.406621 0 0 1-53.278701-53.278701v-213.242723c0-29.421611 23.921049-53.278701 53.278701-53.278701h213.242723c29.421611 0 53.278701 23.921049 53.278701 53.278701V778.761274zM806.407995 320.359775a33.898813 33.898813 0 0 0 34.282573-33.579013l-0.06396-78.351031h45.731418c12.664085 0 22.897689-10.489444 22.897689-23.409369 0-12.919925-10.233604-23.345409-22.897689-23.345409h-45.731418l0.06396-93.317676c37.096814-12.792005 64.471705-45.987258 68.117427-85.834354l0.44772-9.146283c0-55.645222-46.051218-100.737039-102.84772-100.73704C749.611493-127.3604 703.560275-82.268582 703.560275-26.62336c0 43.876577 28.590131 81.165272 68.501187 94.980637V286.780762c0 18.548407 15.350406 33.579013 34.346533 33.579013z m0-291.018114a56.540662 56.540662 0 0 1-57.116302-55.965021c0-30.892692 25.58401-55.965022 57.116302-55.965022a56.540662 56.540662 0 0 1 57.116302 55.965022c0 30.892692-25.58401 55.965022-57.116302 55.965021z"  horiz-adv-x="1024" />

    
    <glyph glyph-name="caidanzumoban" unicode="&#59202;" d="M336 448h-224C50.24 448 0 498.24 0 560v224C0 845.76 50.24 896 112 896h224C397.76 896 448 845.76 448 784v-224C448 498.24 397.76 448 336 448zM384 778.688A53.376 53.376 0 0 1 330.688 832H117.312A53.44 53.44 0 0 1 64 778.688v-213.376c0-29.44 23.936-53.312 53.312-53.312h213.376C360.128 512 384 535.936 384 565.312V778.688zM336-128h-224C50.24-128 0-77.824 0-16v224C0 269.76 50.24 320 112 320h224C397.76 320 448 269.76 448 208v-224C448-77.824 397.76-128 336-128zM384 202.688A53.376 53.376 0 0 1 330.688 256H117.312a53.44 53.44 0 0 1-53.312-53.312v-213.376c0-29.44 23.936-53.312 53.312-53.312h213.376c29.44 0 53.312 23.936 53.312 53.312v213.376zM867.328 0a27.456 27.456 0 0 0 24.832-15.808c5.12-9.984 5.12-22.4 0-32.384a27.456 27.456 0 0 0-24.832-15.808h-134.656a27.456 27.456 0 0 0-24.832 15.808 35.968 35.968 0 0 0 0 32.384 27.456 27.456 0 0 0 24.832 15.808h134.656z m84.864 128a33.216 33.216 0 0 0 29.184-15.808 31.168 31.168 0 0 0 0-32.384 33.216 33.216 0 0 0-29.184-15.808h-214.4a33.216 33.216 0 0 0-29.248 15.808 31.168 31.168 0 0 0 0 32.384 33.216 33.216 0 0 0 29.184 15.808z m-64.256 128c18.88-0.384 33.92-14.592 33.92-32s-15.04-31.616-33.92-32h-148.352a35.52 35.52 0 0 0-30.784 15.808 29.824 29.824 0 0 0 0 32.384c6.4 10.048 18.176 16.064 30.72 15.808z m24.064 640C973.76 896 1024 845.76 1024 784v-224C1024 498.24 973.76 448 912 448h-224C626.24 448 576 498.24 576 560v224C576 845.76 626.24 896 688 896h224z m-5.312-64h-213.376a53.44 53.44 0 0 1-53.312-53.312v-213.376c0-29.44 23.936-53.312 53.312-53.312h213.376c29.44 0 53.312 23.936 53.312 53.312V778.688A53.376 53.376 0 0 1 906.688 832z"  horiz-adv-x="1024" />

    
    <glyph glyph-name="caozuoshouce" unicode="&#59203;" d="M912.64 832H589.952c-30.336 0-57.792-12.352-77.888-32.448A109.888 109.888 0 0 1 434.112 832H111.296C49.92 832 0 781.248 0 718.592v-612.48c0-62.656 49.856-113.408 111.36-113.408h325.504c44.544 0 58.432-56.704 58.432-56.704h33.344s13.952 56.704 58.496 56.704h325.568c61.44 0 111.296 50.752 111.296 113.408v612.48C1024 781.248 974.144 832 912.64 832zM111.36 49.408a56.256 56.256 0 0 0-55.68 56.704v612.48c0 31.232 24.96 56.704 55.68 56.704h322.752c18.176 0 34.304-8.96 44.48-22.72v-703.168H111.36z m856.96 56.704c0-31.232-24.96-56.704-55.68-56.704H545.472V752.64a55.232 55.232 0 0 0 44.48 22.72h322.816c30.72 0 55.68-25.472 55.68-56.704v-612.48z"  horiz-adv-x="1024" />

    
    <glyph glyph-name="canshuzhongxin" unicode="&#59204;" d="M320 622.912c-17.536 0-32-15.232-32-33.792v-410.24c0-18.56 14.464-33.792 32-33.792s32 15.232 32 33.792v410.24c-0.768 18.56-14.464 33.792-32 33.792zM456.512 896c-17.472 0-32-16.896-32-37.312V182.4c0-20.48 14.528-37.312 32-37.312 17.536 0 32 16.832 32 37.312V858.688c0 20.48-14.464 37.312-32 37.312z m136.576-341.312c-17.536 0-32-15.552-32-34.368v-340.928c0-18.816 14.464-34.304 32-34.304 17.472 0 32 15.488 32 34.304V520.32c-0.768 18.816-14.528 34.368-32 34.368zM729.6 622.912c-17.536 0-32-15.232-32-33.792v-410.24c0-18.56 14.464-33.792 32-33.792s32 15.232 32 33.792v410.24c0 18.56-14.464 33.792-32 33.792zM841.856 225.536l67.904-209.28a32 32 0 0 0-30.4-41.856H145.408a32 32 0 0 0-30.464 41.792l67.264 209.344A23.36 23.36 0 0 1 160 256c-19.2 0-36.48-11.968-43.136-30.016L32-3.392a64 64 0 0 1 60.032-86.208h840.064a64 64 0 0 1 60.032 86.208l-84.928 229.376A45.952 45.952 0 0 1 864 256a23.232 23.232 0 0 1-22.144-30.464z"  horiz-adv-x="1024" />

    
    <glyph glyph-name="gongzuoliumobangongxiang" unicode="&#59205;" d="M681.95631 896a68.216096 68.216096 0 0 0 68.216096-68.216096l-0.068217-37.587069h204.989368c75.31057 0 136.363976-63.236321 136.363976-141.207318v-211.674545c0-77.970998-61.053406-141.207318-136.432192-141.207318H608.010062a102.665224 102.665224 0 0 0-96.45756-70.535444 102.665224 102.665224 0 0 0-96.457559 70.535444H137.523649c-34.926641 0-63.78205-27.150006-67.738583-62.281296l-0.409297-8.185931v-211.742762c0-36.154531 26.331413-66.033181 60.234813-70.126146l7.913067-0.477513h173.951044a35.267722 35.267722 0 0 0 0-70.535443H136.432192C61.053406-127.241437 0-64.073332 0 13.897665V225.57221c0 77.970998 61.053406 141.207318 136.432192 141.207319h278.594535a102.665224 102.665224 0 0 0 96.457559 70.535443c44.545111 0 82.405044-29.469353 96.45756-70.535443h345.992038c34.926641 0 63.78205 27.218222 67.738583 62.281295l0.409296 8.185932V649.057733c0 36.154531-26.331413 66.033181-60.234812 70.126147l-7.913067 0.477512h-203.829695v-37.655285a68.216096 68.216096 0 0 0-68.216095-68.216095H68.216096a68.216096 68.216096 0 0 0-68.216096 68.216095V827.783904a68.216096 68.216096 0 0 0 68.216096 68.216096h613.740214z m242.235356-952.705994c10.914575 0.34108 20.942341-6.344097 26.467845-17.395104a40.929657 40.929657 0 0 0 0-35.745235c-5.457288-11.051008-15.621486-17.736185-26.467845-17.395104h-143.526666c-10.778143-0.272864-20.874125 6.344097-26.399629 17.395104a40.929657 40.929657 0 0 0 0 35.745235c5.457288 11.051008 15.621486 17.736185 26.399629 17.395104h143.526666z m90.454543 141.207318a35.47237 35.47237 0 1 0 0-70.535443h-228.523921a35.47237 35.47237 0 1 0 0 70.535443zM946.157249 225.503994a36.154531 36.154531 0 0 0 36.154531-35.267721 36.154531 36.154531 0 0 0-36.154531-35.267722h-158.056694a37.518853 37.518853 0 0 0-32.811942 17.395105 33.835184 33.835184 0 0 0 0 35.745234 37.518853 37.518853 0 0 0 32.743726 17.395104zM681.95631 825.464557H68.216096v-141.207318h613.740214v141.207318z"  horiz-adv-x="1092" />

    
    <glyph glyph-name="gongzuoliuzuhu" unicode="&#59206;" d="M681.961761 896a68.216641 68.216641 0 0 0 68.216642-68.216641l-0.068217-37.587369h204.991006c75.311172 0 136.365066-63.236826 136.365066-141.208448v-211.676237c0-77.971621-61.053894-141.208447-136.433282-141.208447H608.014922a102.666045 102.666045 0 0 0-96.45833-70.536007 102.666045 102.666045 0 0 0-96.458331 70.536007H137.524749c-34.92692 0-63.782559-27.150223-67.739125-62.281793l-0.4093-8.185997v-211.744454c0-36.15482 26.331623-66.033709 60.235294-70.126708l7.913131-0.477516h173.952434a35.268003 35.268003 0 0 0 0-70.536007H136.433282C61.053894-127.249617 0-64.081007 0 13.890614V225.566851c0 77.971621 61.053894 141.208447 136.433282 141.208447h278.596763a102.666045 102.666045 0 0 0 96.45833 70.536007c44.545467 0 82.405702-29.469589 96.458331-70.536007h345.994804c34.92692 0 63.782559 27.21844 67.739124 62.281793l0.4093 8.185997V649.055759c0 36.15482-26.331623 66.033709-60.235294 70.126707l-7.91313 0.477517h-203.831324v-37.655586a68.216641 68.216641 0 0 0-68.216641-68.216641H68.216641a68.216641 68.216641 0 0 0-68.216641 68.216641V827.783359a68.216641 68.216641 0 0 0 68.216641 68.216641h613.74512z m256.494571-778.624742c64.123643 0 116.17294-51.298914 116.17294-114.603957 0-63.236826-51.981081-114.603957-116.17294-114.603957a116.104723 116.104723 0 0 0-109.487709 76.402638H577.181001a38.474186 38.474186 0 0 0-38.747053 38.201319c0 21.147159 17.327027 38.201319 38.747053 38.201319h90.250616l0.068216 50.957831c0 14.052628 11.596829 25.444807 25.785891 25.444807 14.325495 0 25.854107-11.392179 25.854107-25.444807v-50.957831h109.828792a115.96829 115.96829 0 0 0 99.528079 75.993338l9.95963 0.4093z m0-50.957831a64.123643 64.123643 0 0 1-64.464726-63.646126 64.123643 64.123643 0 0 1 64.464726-63.646126 64.123643 64.123643 0 0 1 64.532943 63.646126 64.123643 64.123643 0 0 1-64.532943 63.646126zM681.961761 825.463993H68.216641v-141.208447h613.74512v141.208447z"  horiz-adv-x="1092" />

    
    <glyph glyph-name="jiankongtai" unicode="&#59207;" d="M736 0a32 32 0 1 0 0-64h-448a32 32 0 1 0 0 64h448zM896 832a128 128 0 0 0 128-128v-448a128 128 0 0 0-128-128h-32a32 32 0 1 0 0 64h32a64 64 0 0 1 63.552 56.512L960 256V704a64 64 0 0 1-64 64H128a64 64 0 0 1-63.552-56.512L64 704v-448a64 64 0 0 1 56.512-63.552L128 192h416a32 32 0 1 0 0-64H128a128 128 0 0 0-128 128V704a128 128 0 0 0 128 128h768zM515.2 640l5.376-0.448a28.16 28.16 0 0 0 22.656-19.136l69.504-229.248 116.224 156.16a29.248 29.248 0 0 0 20.736 11.52 30.08 30.08 0 0 0 22.656-7.552l114.816-104.32c11.52-10.432 11.776-27.52 0.768-38.272a29.888 29.888 0 0 0-40.576-0.64l-90.688 82.432-131.456-176.768a29.184 29.184 0 0 0-28.288-11.136 28.352 28.352 0 0 0-22.848 19.2l-69.888 230.4-137.6-178.048a29.184 29.184 0 0 0-21.632-11.072 29.248 29.248 0 0 0-22.784 8.704L241.408 454.784l-67.2-48.704a29.888 29.888 0 0 0-40.192 4.928 25.92 25.92 0 0 0 5.12 37.888l88.064 63.872a30.016 30.016 0 0 0 38.72-3.2l74.88-76.928 151.552 196.224a29.44 29.44 0 0 0 28.224 10.688z"  horiz-adv-x="1024" />

    
    <glyph glyph-name="kapianfanganmobangongxiang" unicode="&#59208;" d="M987.13792 832c20.16 0 36.544-16.704 36.544-37.312V480a32 32 0 0 0-64 0V512L64.00192 512v-512h479.808a32 32 0 1 0 0-64H36.54592A36.928 36.928 0 0 0 0.00192-26.688V794.688C0.00192 815.296 16.38592 832 36.54592 832h950.592z m-81.664-832a27.456 27.456 0 0 0 24.768-15.808c5.12-9.984 5.12-22.4 0-32.384a27.456 27.456 0 0 0-24.768-15.808h-134.656a27.456 27.456 0 0 0-24.768 15.808 35.968 35.968 0 0 0 0 32.384 27.456 27.456 0 0 0 24.768 15.808h134.656z m84.8 128a33.216 33.216 0 0 0 29.184-15.808 31.168 31.168 0 0 0 0-32.384 33.216 33.216 0 0 0-29.184-15.808h-214.4a33.216 33.216 0 0 0-29.184 15.808 31.168 31.168 0 0 0 0 32.384 33.216 33.216 0 0 0 29.184 15.808z m-417.92 249.856a17.6 17.6 0 0 0 2.176-17.792l-114.432-258.56a16.256 16.256 0 0 0-10.368-9.216 15.36 15.36 0 0 0-13.312 2.496l-56.256 41.408a11.008 11.008 0 0 0-2.56-5.376l-54.656-56.448a33.92 33.92 0 0 0-21.952-9.152c-7.232 0-19.968 7.808-19.968 14.72v65.024c0 6.016 7.68 14.528 12.672 17.536a15.36 15.36 0 0 0 16 0c4.992-3.008 13.248-11.52 13.248-17.536v-14.08l25.472 28.544c-7.168 5.312-10.56 21.568-5.504 29.184 4.992 7.616 22.4 13.504 29.632 8.32l62.656-39.936 84.928 175.424-260.48-71.68 46.4-25.6a15.36 15.36 0 0 1 16.896-0.512l78.72 45.568c4.992 3.008 24.192 6.976 29.12 3.968a17.024 17.024 0 0 0 8.064-14.528c0-6.016-3.136-18.496-8.064-21.504L335.42592 192c-15.744-9.664-32.192-5.76-47.424 4.864l-88.832 63.936a17.28 17.28 0 0 0-6.912 16.896 16.512 16.512 0 0 0 11.904 13.44l352 92.352a15.552 15.552 0 0 0 16.192-5.632zM926.08192 256c18.88-0.384 33.92-14.592 33.92-32s-15.04-31.616-33.92-32h-148.352a35.52 35.52 0 0 0-30.72 15.808 29.824 29.824 0 0 0 0 32.384c6.4 10.048 18.112 16.064 30.72 15.808z m33.6 512H64.00192v-192l895.68 0.064V768z m-159.936-64a32 32 0 1 0 0-64h-128a32 32 0 0 0 0 64h128z"  horiz-adv-x="1024" />

    
    <glyph glyph-name="kuaijiefuwu" unicode="&#59209;" d="M509.312-64h-1.024c-21.376 0-55.488 10.112-81.6 37.76L75.712 359.488c-0.512 0.576-1.6 1.728-2.112 2.816C27.712 423.104 0 465.984 0 549.312c0 73.216 27.712 144.128 76.288 195.392a252.928 252.928 0 0 0 185.024 78.848H262.4c52.288 0 101.888-16.896 143.488-47.872 17.024-12.928 21.312-37.76 9.024-55.744a36.48 36.48 0 0 0-52.8-9.6A164.288 164.288 0 0 1 262.4 743.68h-1.088c-51.712 0-97.024-19.2-131.2-55.232a205.696 205.696 0 0 1-53.824-139.072c0-58.56 17.024-83.904 56-135.168l349.312-384.064c9.6-10.176 24-13.568 28.288-13.568 2.624 0 9.6 5.632 18.112 14.72l1.088 1.088c29.312 28.672 285.824 282.112 358.912 377.28 39.488 51.84 60.288 102.528 60.288 146.432 0 100.8-90.688 195.968-187.2 195.968-28.8 0-88.576-10.688-128.576-51.2-29.824-30.4-106.112-112.064-137.6-145.92l-2.112-2.24a37.056 37.056 0 0 0-53.888-0.512 42.24 42.24 0 0 0-0.512 56.832l8 8.448c25.088 27.072 101.888 109.248 133.312 140.8C633.6 812.864 710.912 832 761.088 832 898.688 832 1024 700.16 1024 555.52c0-62.528-26.688-130.688-77.312-196.608-75.2-98.56-317.888-337.92-365.888-385.152l-0.512-0.64c-24-25.28-45.888-37.12-70.976-37.12z"  horiz-adv-x="1024" />

    
    <glyph glyph-name="gongzuoliuquanjugongxiang" unicode="&#59210;" d="M853.332764 290.543337c38.092775 0 69.973287-26.350916 77.823949-61.644759l1.297065-8.191994v0.068266a183.295878 183.295878 0 0 0 105.26713-142.677238l0.068267-0.8192c31.675712-10.376526 54.476764-39.79944 54.476763-74.410617 0-43.417571-35.635176-78.506614-79.667146-78.506614-8.806394 0-17.271455 1.365332-25.122117 3.959464h-0.136533l-2.594132-2.730665A186.640942 186.640942 0 0 0 853.332764-127.999317a186.640942 186.640942 0 0 0-134.007377 56.251695l3.208531 1.297066-8.87466-2.867198a81.237279 81.237279 0 0 0-19.592521-2.389332A79.052747 79.052747 0 0 0 614.39959 2.799529c0 34.679444 22.801051 64.102357 54.476764 74.478883l0.068267 0.8192A183.500678 183.500678 0 0 0 774.143484 220.843117l1.365332 8.055461a79.39408 79.39408 0 0 0 77.823948 61.644759zM682.461412 896a68.266621 68.266621 0 0 0 68.266621-68.266621l-0.068267-32.631445h205.141197c75.36635 0 136.464976-60.21116 136.464975-134.485244v-201.864399c0-74.34235-61.098626-134.485244-136.533242-134.485243H608.460394a102.331665 102.331665 0 0 0-96.529002-67.310889 102.331665 102.331665 0 0 0-96.529002 67.242622H137.625508a67.925288 67.925288 0 0 1-67.788755-59.39196l-0.409599-7.850662v-201.864398a67.583955 67.583955 0 0 1 60.279426-66.764756l7.918928-0.477866h175.78655a33.655444 33.655444 0 1 0 0-67.242622H136.533242C61.098626-79.393483 0-19.182323 0 55.091761V257.024426c0 74.274084 61.098626 134.485244 136.533242 134.485244l278.800881 0.068266a102.331665 102.331665 0 0 0 96.529002 67.242622c44.509837 0 82.466078-28.057581 96.529003-67.242622h346.248302c34.95251 0 63.829291 25.941316 67.788755 59.391961l0.4096 7.850661V660.480157a67.583955 67.583955 0 0 1-60.279427 66.833022l-7.918928 0.4096-203.980664 0.068266v-32.699711a68.266621 68.266621 0 0 0-68.266621-68.266621H68.266621a68.266621 68.266621 0 0 0-68.266621 68.266621V827.733379a68.266621 68.266621 0 0 0 68.266621 68.266621h614.194791z m103.219131-725.33285l1.433599-2.184532c-33.860244-19.114654-58.367961-52.770098-64.85329-92.364738 29.90078-10.922659 51.404766-39.59464 51.404766-73.318351 0-16.110923-4.915197-31.129579-13.380258-43.622371l1.092266 1.706665c23.688518-22.596252 56.183429-36.590909 91.955138-36.590909s68.198355 13.926391 92.023406 36.590909l-1.501866 2.321066a77.277815 77.277815 0 0 0-10.922659 39.59464c0 34.133311 22.118385 63.146625 52.974898 73.932751l-1.570133-0.546133a130.798846 130.798846 0 0 1-64.85329 92.364738l-1.843198-2.798932a79.871947 79.871947 0 0 0-64.307158-32.085311 79.871947 79.871947 0 0 0-67.652221 37.000508z m226.918249-141.721505a26.350916 26.350916 0 0 1-26.555716-26.146116c0-14.472524 11.946659-26.146116 26.623982-26.146116a26.350916 26.350916 0 0 1 26.487449 26.146116 26.350916 26.350916 0 0 1-26.555715 26.146116z m-318.532055 0a26.350916 26.350916 0 0 1-26.623982-26.146116c0-14.472524 11.946659-26.146116 26.623982-26.146116a26.350916 26.350916 0 0 1 26.555716 26.146116 26.350916 26.350916 0 0 1-26.623982 26.146116zM853.332764 238.251105a26.350916 26.350916 0 0 1-26.555715-26.146116c0-14.472524 11.878392-26.146116 26.555715-26.146116a26.350916 26.350916 0 0 1 26.555716 26.146116 26.350916 26.350916 0 0 1-26.555716 26.146116zM682.461412 828.757378H68.266621v-134.55351h614.194791V828.689112z"  horiz-adv-x="1092" />

    
    <glyph glyph-name="kapianshichang" unicode="&#59211;" d="M987.45792 832c20.16 0 36.544-16.704 36.544-37.312v-821.376a36.928 36.928 0 0 0-36.544-37.312H36.48192A36.928 36.928 0 0 0 0.00192-26.688V794.688C0.00192 815.296 16.38592 832 36.54592 832H987.52192zM960.00192 512.064L64.00192 512v-512h896V512.064zM644.60992 448c24.192 0 43.968-21.248 45.12-48.64L704.00192 117.568a54.784 54.784 0 0 0-11.904-37.12 43.392 43.392 0 0 0-33.216-16.384H365.18592a43.2 43.2 0 0 0-33.28 16.32 54.4 54.4 0 0 0-11.84 37.184l14.4 282.112c1.152 27.136 21.12 48.384 45.12 48.384h265.024z m-16.512-48l-232-0.192c-8.256 0-15.168-7.296-15.488-16.32l-12.608-253.76a17.92 17.92 0 0 1 3.84-11.904c3.072-3.84 7.04-5.824 11.648-5.824h256.896a15.296 15.296 0 0 1 11.712 5.824 18.56 18.56 0 0 1 3.84 12.16l-12.352 253.44c-0.384 9.344-7.232 16.576-15.488 16.576z m-214.976-25.472c22.848-45.696 59.52-72.512 98.944-72.832 38.976 0 76.16 27.136 98.944 72.832 5.12 10.24 15.232 12.416 22.4 5.12 7.168-7.36 8.704-21.76 3.584-32C607.87392 290.56 561.08992 256 511.87392 256c-49.728 0-96 34.176-124.928 91.968-5.12 10.24-3.392 24.64 4.032 32 7.168 7.04 17.024 4.736 22.144-5.44zM960.00192 768H64.00192v-192l896 0.064V768z m-160-64a32 32 0 1 0 0-64h-128a32 32 0 1 0 0 64h128z"  horiz-adv-x="1024" />

    
    <glyph glyph-name="kapianfanganzuhu" unicode="&#59212;" d="M987.45792 832c20.16 0 36.544-16.704 36.544-37.312V480a32 32 0 1 0-64 0v32.064L64.00192 512v-512h480a32 32 0 1 0 0-64H36.54592A36.928 36.928 0 0 0 0.00192-26.688V794.688C0.00192 815.296 16.38592 832 36.54592 832H987.52192zM875.52192 416c19.84 0 35.84-15.744 35.84-35.136v-81.856h47.808a23.68 23.68 0 0 0 23.872-23.424 23.68 23.68 0 0 0-23.872-23.424h-47.808v-99.648c39.04-13.44 67.648-48.32 71.296-90.24l0.384-9.088c0-58.112-48.128-105.28-107.52-105.28-59.392 0-107.52 47.168-107.52 105.28a105.6 105.6 0 0 0 71.68 99.392V380.8c0 19.392 16 35.136 35.84 35.136z m0-304.256a59.136 59.136 0 0 1-59.712-58.56c0-32.32 26.752-58.496 59.712-58.496 32.96 0 59.712 26.24 59.712 58.496a59.136 59.136 0 0 1-59.712 58.56zM572.35392 377.856a17.6 17.6 0 0 0 2.176-17.792l-114.432-258.56a16.256 16.256 0 0 0-10.368-9.216 15.36 15.36 0 0 0-13.312 2.496l-56.256 41.408a11.008 11.008 0 0 0-2.56-5.376l-54.656-56.448a33.92 33.92 0 0 0-21.952-9.152c-7.232 0-19.968 7.808-19.968 14.72v65.024c0 6.016 7.68 14.528 12.672 17.536a15.36 15.36 0 0 0 16 0c4.992-3.008 13.248-11.52 13.248-17.536v-14.08l25.472 28.544c-7.168 5.312-10.56 21.568-5.504 29.184 4.992 7.616 22.4 13.504 29.632 8.32l62.656-39.936 84.928 175.424-260.48-71.68 46.4-25.6a15.36 15.36 0 0 1 16.896-0.512l78.72 45.568c4.992 3.008 24.192 6.976 29.12 3.968a17.024 17.024 0 0 0 8.064-14.528c0-6.016-3.136-18.496-8.064-21.504L335.42592 192c-15.744-9.664-32.192-5.76-47.424 4.864l-88.832 63.936a17.28 17.28 0 0 0-6.912 16.896 16.512 16.512 0 0 0 11.904 13.44l352 92.352a15.552 15.552 0 0 0 16.192-5.632zM960.00192 768H64.00192v-192l896 0.064V768z m-160-64a32 32 0 1 0 0-64h-128a32 32 0 1 0 0 64h128z"  horiz-adv-x="1024" />

    
    <glyph glyph-name="rizhizhongxin2" unicode="&#59213;" d="M982.848 527.04a142.976 142.976 0 0 1-67.264 0.768V782.848a45.312 45.312 0 0 1-44.864 45.696H198.976c-24.768 0-44.8-20.48-44.8-45.696v-171.392H86.784v170.24C86.848 844.864 137.088 896 199.04 896h671.744c61.952 0 112.128-51.2 112.128-114.304v-254.72z m0-287.232v-253.504c0-63.104-50.176-114.304-112.128-114.304H198.976c-61.888 0-112.128 51.2-112.128 114.304V154.24h67.264v-168c0-25.28 20.096-45.76 44.864-45.76h671.744c24.768 0 44.8 20.48 44.8 45.76v252.736a143.104 143.104 0 0 1 67.328 0.768z m-896 211.648h67.264V314.24H86.912V451.456zM66.304 565.76h112c22.848 0 34.24-11.52 34.24-34.304 0-22.912-11.392-34.304-34.24-34.304H66.304C43.456 497.152 32 508.544 32 531.456c0 22.848 11.456 34.24 34.304 34.24zM66.304 268.544h112c22.848 0 34.24-11.392 34.24-34.24 0-22.848-11.392-34.304-34.24-34.304H66.304c-22.848 0-34.304 11.456-34.304 34.304 0 22.848 11.456 34.24 34.304 34.24zM393.152 565.76h301.696c22.848 0 34.304-10.688 34.304-32 0-21.376-11.456-32-34.304-32H393.152c-22.848 0-34.304 10.624-34.304 32 0 21.312 11.456 32 34.304 32zM393.152 417.152h301.696c22.848 0 34.304-10.688 34.304-32 0-21.312-11.456-32-34.304-32H393.152c-22.848 0-34.304 10.688-34.304 32 0 21.312 11.456 32 34.304 32zM393.152 268.544h301.696c22.848 0 34.304-10.624 34.304-32 0-21.312-11.456-32-34.304-32H393.152c-22.848 0-34.304 10.688-34.304 32 0 21.376 11.456 32 34.304 32z"  horiz-adv-x="1024" />

    
    <glyph glyph-name="moban" unicode="&#59214;" d="M291.392 440H177.92C132.736 440 96 398.592 96 347.648v-319.36C96-22.528 132.8-64 177.92-64h113.472c45.184 0 81.92 41.408 81.92 92.352v319.36c0 50.88-36.736 92.288-81.92 92.288z m-139.904-91.52c0 19.584 13.248 35.52 29.632 35.52h107.072c16.384 0 29.696-16 29.696-35.584v-320.832c0-19.648-13.312-35.584-29.696-35.584H181.12c-16.384 0-29.632 16-29.632 35.584V348.416zM841.408 832H182.592c-23.168 0-44.864-8.576-61.248-24.128A80 80 0 0 1 96 749.568v-171.136c0-45.44 38.848-82.432 86.592-82.432h658.816c47.68 0 86.528 36.992 86.528 82.432V749.568C928 795.008 889.152 832 841.408 832zM149.376 747.136a28.8 28.8 0 0 0 9.664 21.376 34.368 34.368 0 0 0 23.36 8.832h655.104c18.176 0 32.96-13.568 32.96-30.208v-163.584c0-16.64-14.784-30.208-32.96-30.208H182.4c-18.176 0-33.024 13.504-33.024 30.208V747.136zM889.984 384H466.816c-20.992 0-38.016-12.544-38.016-28.032 0-15.36 17.024-27.968 38.016-27.968h423.168c20.992 0 38.016 12.544 38.016 28.032 0 15.36-17.024 27.968-38.016 27.968z m0-168H466.816c-20.992 0-38.016-12.544-38.016-28.032 0-15.36 17.024-27.968 38.016-27.968h423.168c20.992 0 38.016 12.544 38.016 28.032 0 15.36-17.024 27.968-38.016 27.968z m0-168H466.816c-20.992 0-38.016-12.544-38.016-28.032 0-15.36 17.024-27.968 38.016-27.968h423.168c20.992 0 38.016 12.544 38.016 28.032 0 15.36-17.024 27.968-38.016 27.968z"  horiz-adv-x="1024" />

    
    <glyph glyph-name="renwu1" unicode="&#59215;" d="M736.32-128H82.88C37.504-128 0-93.824 0-52.48V692.48C0 733.824 37.504 768 82.88 768h60.48a32.32 32.32 0 0 0 0-64.64l-52.288-0.064c-11.84 0-21.76-17.92-21.76-28.672v-719.168c0-10.816 9.92-19.84 21.76-19.84h638.4c11.84 0 21.696 9.024 21.696 19.84V683.648c0 10.752-9.856 19.776-21.76 19.776H697.6a32.32 32.32 0 1 0 0 64.576h38.784c45.376 0 82.88-34.176 82.88-75.52v-744.96c0-41.344-36.48-75.52-82.88-75.52zM295.168 668.672a83.328 83.328 0 0 0-83.712 82.624v62.08C211.456 858.368 248.576 896 295.168 896H548.48c45.696 0 83.712-36.608 83.712-82.688v-62.016A84.608 84.608 0 0 0 548.48 668.672H295.168z m0 169.088a24.384 24.384 0 0 1-24.704-24.448v-62.016c0-13.12 10.432-24.384 24.704-24.384H548.48a24.384 24.384 0 0 1 24.768 24.384v62.08a24.384 24.384 0 0 1-24.768 24.32H295.168z m-61.248-377.664h315.712a29.12 29.12 0 0 0 0-58.24H233.92a29.12 29.12 0 0 0 0 58.24z m344.832-244.288a29.12 29.12 0 0 0-29.12-29.12H233.92a29.12 29.12 0 0 0 0 58.24h315.712c16.064 0 29.12-12.992 29.12-29.12z m157.952-340.992h-28.224l13.312 56.32h28.224a46.08 46.08 0 0 1 35.2 5.696 43.392 43.392 0 0 1 20.032 26.24l158.912 674.56c5.696 23.488-10.496 46.976-35.2 52.608l-188.416 43.264-22.208 4.928a28.608 28.608 0 0 0-21.568 34.56 29.312 29.312 0 0 0 34.88 21.76l22.208-4.928 188.416-43.2c56.128-13.12 92.288-67.648 78.976-122.112l-158.912-674.56a101.184 101.184 0 0 0-46.656-62.912 109.44 109.44 0 0 0-54.208-15.04c-8.576 0-16.192 0.96-24.768 2.816z"  horiz-adv-x="1024" />

    
    <glyph glyph-name="wenanguanli" unicode="&#59216;" d="M877.696 896A146.304 146.304 0 0 0 1024 749.76v-731.52A146.304 146.304 0 0 0 877.696-128H146.304A146.304 146.304 0 0 0 0 18.304V749.76A146.304 146.304 0 0 0 146.304 896h731.392z m0-73.088H146.304c-40.384 0-73.088-32.768-73.088-73.152v-731.52c0-40.32 32.64-73.088 73.088-73.088h731.392a73.152 73.152 0 0 1 73.152 73.152V749.76a73.152 73.152 0 0 1-73.152 73.152z m-73.472-658.304a36.608 36.608 0 1 0 0-73.152H220.16a36.608 36.608 0 1 0 0 73.152h584.064zM512.448 619.776a36.608 36.608 0 0 0 0-73.152H406.336v-219.52a36.608 36.608 0 1 0-73.152 0v219.52h-113.28a36.608 36.608 0 0 0 0 73.152h292.544z m291.776-227.648a36.608 36.608 0 1 0 0-73.152h-128.512a36.608 36.608 0 1 0 0 73.152h128.512z m0 227.584a36.608 36.608 0 1 0 0-73.152h-128.512a36.608 36.608 0 1 0 0 73.152h128.512z"  horiz-adv-x="1024" />

    
    <glyph glyph-name="lunbotuguanli" unicode="&#59217;" d="M811.456-64H212.48C166.784-64 128-16.512 128 44.608V723.392C128 782.272 164.992 832 212.544 832h598.912C857.216 832 896 784.512 896 723.392v-678.784c0-58.88-38.784-108.608-84.544-108.608zM214.72 766.72c-12.224 0-22.72-31.616-22.72-47.36v-672.512c0-15.68 10.496-47.552 22.72-47.552h594.56c12.224 0 22.72 31.872 22.72 47.552V721.664c0 15.68-10.496 47.296-22.72 47.296h-594.56v-2.24zM118.272 50.304h-46.976C32.64 50.304 0 86.144 0 128.768V666.88c0 42.624 32.64 78.528 71.296 78.528h46.976v-67.264h-46.976c-6.08 0-10.176-4.48-10.176-11.264v-538.112c0-6.72 4.096-11.2 10.24-11.2h46.912v-67.2z m834.432 0h-47.168v67.264h47.168c6.08 0 10.176 4.48 10.176 11.2V666.88c0 6.784-4.096 11.264-10.24 11.264h-47.104v67.2h47.168c38.72 0 71.296-35.84 71.296-78.464v-538.112c0-42.56-30.592-78.464-71.296-78.464zM377.088 432.576c-38.4 0-70.912 31.36-70.912 71.68A70.4 70.4 0 0 0 377.088 576a70.4 70.4 0 0 0 71.04-71.68c0-40.384-32.64-71.744-71.04-71.744z m0 104.576a34.56 34.56 0 0 1-33.92-34.368c0-19.392 14.72-34.368 33.92-34.368 19.2 0 34.048 14.976 34.048 34.368a34.56 34.56 0 0 1-34.048 34.368zM306.176 192a16.64 16.64 0 0 0-11.84 4.48c-7.36 7.488-8.896 17.92-1.472 26.88l130.048 150.912c3.008 4.48 8.896 6.016 13.312 6.016 4.48 0 10.368-1.536 13.312-6.016l59.136-59.776L612.16 446.08a18.112 18.112 0 0 0 14.72 7.488c5.952 0 10.368-3.008 14.848-7.488l90.176-109.056a19.328 19.328 0 0 0-3.008-26.88 18.88 18.88 0 0 0-26.56 2.944L626.944 404.16 524.928 274.176c-2.944-4.48-7.36-5.952-13.312-7.488a18.88 18.88 0 0 0-14.72 6.016l-59.2 62.72-118.208-135.936a17.6 17.6 0 0 0-13.312-7.488z"  horiz-adv-x="1024" />

    
    <glyph glyph-name="tongyi" unicode="&#59218;" d="M965.888 224.64c54.144 231.04-82.432 463.936-313.728 535.04C652.16 834.944 589.696 896 512.64 896 435.712 896 373.248 834.944 373.248 759.68 141.888 688.576 5.312 455.68 59.52 224.64a133.76 133.76 0 0 1-40.32-180.096c36.8-61.184 115.52-84.288 180.736-53.12 176.576-159.232 448.64-159.232 625.216 0 18.56-8.704 38.912-13.248 59.52-13.312a138.88 138.88 0 0 1 132.608 94.336c18.56 56.32-2.24 117.76-51.392 152.256zM512.64 826.368c42.752 0 77.44-33.92 77.44-75.712 0-41.856-34.688-75.712-77.44-75.712-42.816 0-77.504 33.92-77.504 75.712 0 41.856 34.688 75.712 77.44 75.712zM63.232 114.432c0 41.792 34.688 75.712 77.44 75.712 42.88 0 77.568-33.92 77.568-75.712 0-41.856-34.752-75.712-77.504-75.712-20.544 0-40.32 7.936-54.784 22.144a74.88 74.88 0 0 0-22.72 53.568z m185.984-84.8c19.968 23.936 30.912 53.888 30.976 84.8 0 36.16-14.72 70.848-40.832 96.384a141.12 141.12 0 0 1-98.624 39.936 141.376 141.376 0 0 1-22.656-2.112c-5.504 25.6-8.32 51.648-8.32 77.824 0.192 168.768 110.4 318.656 273.92 372.608a139.2 139.2 0 0 1 129.024-84.8c56.64 0 107.648 33.536 128.96 84.8 163.584-53.952 273.792-203.84 273.984-372.608a376.64 376.64 0 0 0-8.32-77.824 139.712 139.712 0 0 1-143.36-65.024 132.928 132.928 0 0 1 12.16-153.984c-150.848-128.896-376-128.896-526.912 0z m635.456 9.088c-42.816 0-77.504 33.92-77.504 75.712s34.688 75.712 77.44 75.712c42.88 0 77.568-33.92 77.568-75.712 0-41.856-34.752-75.712-77.504-75.712z"  horiz-adv-x="1024" />

    
    <glyph glyph-name="shujuzhiliangjiankong1" unicode="&#59219;" d="M512 895.296A509.824 509.824 0 0 1 0.704 384 509.824 509.824 0 0 1 512-127.296 509.824 509.824 0 0 1 1023.296 384 509.824 509.824 0 0 1 512 895.296z m255.616-123.2v-16.256c0-48.832-4.672-95.296-13.952-141.76a69.44 69.44 0 0 1-55.744-67.392c0-18.56 6.976-37.184 20.928-48.832-16.256-37.12-32.576-74.368-55.808-109.184a701.504 701.504 0 0 0-167.296 357.888 663.36 663.36 0 0 0 171.968 74.304 397.44 397.44 0 0 0 99.904-48.768zM670.08 314.304c41.856-39.552 86.016-74.368 134.784-102.272-48.768-9.28-99.904-13.952-153.344-13.952-23.232 0-46.464 2.304-69.76 2.304 0 4.672 0 9.344-2.304 13.952 32.512 30.208 62.72 65.088 90.624 99.968zM512 848.832c25.6 0 51.136-2.368 76.672-7.04-32.512-13.888-65.024-27.84-97.6-44.096-2.304 16.256-2.304 32.512-2.304 48.768C495.744 848.832 504.96 848.832 512 848.832z m125.44-499.648a815.36 815.36 0 0 0-83.584-95.296A64.96 64.96 0 0 1 512 267.84c-30.208 0-55.808-18.56-65.088-46.528-92.928 23.296-181.248 58.112-260.288 106.88a719.36 719.36 0 0 0 99.968 218.496c4.608 0 9.28-2.304 16.256-2.304a68.48 68.48 0 0 1 69.76 69.76c0 9.28-2.368 18.56-4.672 27.84a853.76 853.76 0 0 0 85.952 74.368c25.6-139.456 90.688-264.96 183.616-367.168z m-520.512-209.216a478.08 478.08 0 0 0-69.76 234.752c27.904-23.296 55.808-46.528 86.016-65.088-9.28-51.136-16.256-104.576-16.256-158.08v-11.52z m30.208 216.192A763.264 763.264 0 0 0 51.84 432.768C75.072 641.984 237.76 809.28 444.544 841.792c0-25.536 2.368-48.768 4.672-74.304-39.168-27.648-76.48-57.92-111.552-90.688a65.6 65.6 0 0 1-34.88 9.344 68.48 68.48 0 0 1-69.696-69.76c0-16.256 7.04-30.208 16.256-44.16A660.736 660.736 0 0 1 147.2 356.096z m20.928-283.52a845.44 845.44 0 0 0-4.672 78.976c0 44.16 4.672 88.32 13.952 130.112a933.568 933.568 0 0 1 269.568-106.88c0-2.304 0-2.304 2.304-4.672-81.28-53.44-174.272-88.32-274.176-104.576-4.672 2.368-4.672 4.672-7.04 7.04h0.064zM512-80.896c-113.92 0-216.128 41.856-297.472 109.248a703.552 703.552 0 0 1 264.96 109.248 53.44 53.44 0 0 1 32.512-9.344c23.232 0 41.856 11.648 55.808 27.904 27.84-2.304 55.744-4.672 83.648-4.672 74.368 0 146.368 9.344 216.128 25.6 16.256-7.04 32.512-16.256 48.768-20.928A461.44 461.44 0 0 0 512-80.768z m360.256 306.752a686.208 686.208 0 0 0-176.64 127.872c25.6 39.488 46.464 81.28 65.024 123.136h7.04a68.48 68.48 0 0 1 69.696 69.76c0 27.84-16.256 51.136-39.552 62.72a582.912 582.912 0 0 1 13.952 127.808 463.04 463.04 0 0 0 162.688-353.28c0-46.464-6.976-88.32-18.56-130.112-25.6-11.584-53.44-20.928-83.648-27.904z"  horiz-adv-x="1024" />

    
    <glyph glyph-name="kapianfanganquanjugongxiang" unicode="&#59220;" d="M987.45792 832c20.16 0 36.544-16.704 36.544-37.312V480a32 32 0 1 0-64 0v32.064L64.00192 512v-512h480a32 32 0 1 0 0-64H36.54592A36.928 36.928 0 0 0 0.00192-26.688V794.688C0.00192 815.296 16.38592 832 36.54592 832H987.52192zM800.00192 384c35.712 0 65.6-25.088 72.96-58.624l1.216-7.872v0.064a174.272 174.272 0 0 0 96.896-124.544l1.92-11.968a74.688 74.688 0 1 0-49.728-140.8l2.432-0.896-6.08-6.016a173.632 173.632 0 0 0-119.616-47.552 173.696 173.696 0 0 0-125.696 53.568l-7.68-2.112a74.688 74.688 0 0 0-39.616 143.808l1.6 10.24a174.464 174.464 0 0 0 97.152 126.336l1.28 7.68A74.688 74.688 0 0 0 800.00192 384z m-62.656-115.264l0.576-0.832a124.544 124.544 0 0 1-60.8-87.936 74.496 74.496 0 0 0 35.52-111.36l1.152 1.792c22.272-21.632 52.672-34.816 86.208-34.816s63.936 13.184 86.272 34.752l-1.408 2.176a74.688 74.688 0 0 0 39.424 108.032l-1.472-0.512a124.16 124.16 0 0 1-51.456 81.92l-9.344 5.952-4.16-5.76a74.496 74.496 0 0 0-116.224 0.64l-4.288 5.952zM572.35392 377.856a17.6 17.6 0 0 0 2.176-17.792l-114.432-258.56a16.256 16.256 0 0 0-10.368-9.216 15.36 15.36 0 0 0-13.312 2.496l-56.256 41.408a11.008 11.008 0 0 0-2.56-5.376l-54.656-56.448a33.92 33.92 0 0 0-21.952-9.152c-7.232 0-19.968 7.808-19.968 14.72v65.024c0 6.016 7.68 14.528 12.672 17.536a15.36 15.36 0 0 0 16 0c4.992-3.008 13.248-11.52 13.248-17.536v-14.08l25.472 28.544c-7.168 5.312-10.56 21.568-5.504 29.184 4.992 7.616 22.4 13.504 29.632 8.32l62.656-39.936 84.928 175.424-260.48-71.68 46.4-25.6a15.36 15.36 0 0 1 16.896-0.512l78.72 45.568c4.992 3.008 24.192 6.976 29.12 3.968a17.024 17.024 0 0 0 8.064-14.528c0-6.016-3.136-18.496-8.064-21.504L335.42592 192c-15.744-9.664-32.192-5.76-47.424 4.864l-88.832 63.936a17.28 17.28 0 0 0-6.912 16.896 16.512 16.512 0 0 0 11.904 13.44l352 92.352a15.552 15.552 0 0 0 16.192-5.632z m376.96-242.752a24.896 24.896 0 1 1 0-49.792 24.896 24.896 0 0 1 0 49.792z m-298.624 0a24.896 24.896 0 1 1 0-49.792 24.896 24.896 0 0 1 0 49.792zM800.00192 334.208a24.896 24.896 0 1 1 0-49.792 24.896 24.896 0 0 1 0 49.792zM960.00192 768H64.00192v-192l896 0.064V768z m-160-64a32 32 0 1 0 0-64h-128a32 32 0 1 0 0 64h128z"  horiz-adv-x="1024" />

    
    <glyph glyph-name="chushitiandi" unicode="&#59221;" d="M551.56992 818.624l459.392-350.4a33.728 33.728 0 0 0 5.056-48.96 38.144 38.144 0 0 0-52.032-5.376l-56.32 43.072V0a64 64 0 0 0-56.512-63.552l-7.488-0.448H180.75392a64 64 0 0 0-64 64V456.832l-56.384-43.008a38.144 38.144 0 0 0-51.968 5.44 33.728 33.728 0 0 0 5.12 48.96l460.48 350.464a64 64 0 0 0 77.568 0z m-38.848-60.48L234.51392 546.368l-51.84-39.424v-505.728h659.072V507.2L512.72192 758.144z m78.464-455.616c49.536 0 81.024-43.776 81.024-97.728 0-48.64-28.8-89.152-73.28-96.64l-1.728-0.832-1.792-0.256-9.024-0.128h-2.688l-12.16 0.128H441.80992c-46.592 0-84.864 38.72-89.216 88.32L352.20992 204.8c0 53.952 40.128 97.728 89.6 97.728h149.376z m-21.248-41.728H454.48192c-35.328 0-58.368-17.472-58.368-56 0-35.84 19.84-49.856 51.008-51.648l7.36-0.192h115.456c35.328 0 58.368 13.248 58.368 51.84 0 38.528-23.04 56-58.368 56zM512.20992 522.432c53.056 0 96-43.776 96-97.728 0-54.016-42.944-97.728-96-97.728s-96 43.712-96 97.728c0 53.952 42.944 97.728 96 97.728z m0-32.576c-35.328 0-64-29.184-64-65.152a64.64 64.64 0 0 1 64-65.152c35.328 0 64 29.184 64 65.152a64.64 64.64 0 0 1-64 65.152z"  horiz-adv-x="1024" />

    
    <glyph glyph-name="wenjianfuwu" unicode="&#59222;" d="M894.132536 896c33.918982 0 61.886143-25.727228 65.470036-58.750237L959.98656 830.081978v-531.184065c0-14.527564-4.799856-28.607142-13.567593-39.9988l-5.759827-6.463806-360.757177-361.077168c-10.559683-10.623681-26.111217-17.279482-41.34276-18.943431L531.00743-127.969281H130.699439a65.918022 65.918022 0 0 0-65.406038 58.750238l-0.447986 7.167785V830.081978c0 33.918982 25.727228 61.886143 58.686239 65.534034L130.699439 896h763.497095z m-36.222913-809.127726l58.366249-59.134226-134.395968-139.515815-66.877994-15.99952c-6.143816-1.471956-12.287631 4.607862-10.751678 10.68768l12.287632 59.902203 141.371759 144.059678z m19.903403 744.745657H153.034769c-14.527564 0-22.143336-0.831975-23.67929-12.543623l-0.31999-4.863854v-862.694119c0-14.591562 6.01582-15.807526 18.879434-15.935522h383.092507l364.917052 363.3171V814.210454c-0.063998 16.31951-1.791946 17.279482-18.111456 17.407477z m7.743767-716.6505a43.518694 43.518694 0 0 0 62.206134 0c16.127516-16.703499 16.127516-42.494725 0.767977-59.198224l-16.895493-18.175455-61.438157 62.206134zM734.073338 323.793166a33.918982 33.918982 0 0 0 6.079817-67.197984L734.073338 256.019199H289.926662a33.918982 33.918982 0 0 0-6.143815 67.197984l6.079817 0.575983h444.210674z m0 190.074298a33.918982 33.918982 0 0 0 6.079817-67.197984l-6.079817-0.511985H289.926662a33.918982 33.918982 0 0 0-6.143815 67.197984l6.079817 0.511985h444.210674z m0 190.138296a33.918982 33.918982 0 0 0 6.079817-67.197984l-6.079817-0.575983H289.926662a33.918982 33.918982 0 0 0-6.143815 67.197984L289.862664 704.00576h444.210674z"  horiz-adv-x="1024" />

    
    <glyph glyph-name="wenjianshangchuan" unicode="&#59223;" d="M894.144 896a65.92 65.92 0 0 0 65.92-65.92v-659.2c0-17.472-6.976-34.176-19.328-46.464l-232.832-233.088a70.976 70.976 0 0 0-48.896-19.328H131.584a65.92 65.92 0 0 0-65.92 65.92V830.08C65.792 866.496 95.296 896 131.648 896z m-16.32-64.384H153.856c-16.32 0-23.936-1.088-23.936-17.408v-862.72c0-16.384 7.616-15.872 23.936-16h486.4v191.424c0 36.416 28.736 65.024 65.088 65.088H896V814.208c-0.064 16.32-1.792 17.28-18.112 17.408z m-30.784-704.64l-112-0.064a29.76 29.76 0 0 1-29.696-29.632v-112.128l141.696 141.76zM520.704 640l0.896-0.064a36.864 36.864 0 0 0 27.968-12.992l153.216-149.76a34.816 34.816 0 0 0 0-50.048 37.632 37.632 0 0 0-51.584 0L557.888 518.464v-290.944A36.032 36.032 0 0 0 521.6 192a36.032 36.032 0 0 0-36.352 35.52V519.168l-94.08-92.032a34.624 34.624 0 0 0-25.344-10.24 37.568 37.568 0 0 0-25.792 10.24 34.816 34.816 0 0 0 0 50.112l155.776 152.32a36.352 36.352 0 0 0 19.264 9.92h1.152A23.552 23.552 0 0 0 520.704 640z"  horiz-adv-x="1024" />

    
    <glyph glyph-name="xiaoxifabu" unicode="&#59224;" d="M535.015256-128c-14.847313 0-29.438638 4.351799-42.494035 13.055396l-252.852306 169.720151a62.717099 62.717099 0 0 1-34.750392 10.559511H79.228336C35.45436 65.335058 0 103.029315 0 149.299175V618.781461C0 665.115318 35.582354 702.681581 79.228336 702.681581h125.690187a62.717099 62.717099 0 0 1 34.750392 10.495515L492.521221 882.833249c25.022843 16.959216 56.765375 17.471192 82.364191 1.599926 24.63886-15.167299 39.35818-42.238046 39.358179-72.572644v-855.896414c0-30.2706-14.783316-57.405345-39.486174-72.636641A76.284472 76.284472 0 0 0 535.015256-128zM79.164339 627.805044c-6.015722 0-11.071488-4.159808-11.071488-9.023583v-469.482286c0-4.351799 4.479793-8.959586 11.071488-8.959586h125.690186c24.894849 0 49.277721-7.551651 70.332748-21.630999l252.852305-169.592157c6.143716-4.159808 11.775455-1.343938 13.439379-0.191991 3.071858 1.919911 4.607787 4.351799 4.607786 7.295663V811.988526c0 2.943864-1.535929 5.439748-4.543789 7.295662a12.223435 12.223435 0 0 1-13.439379-0.319985L275.187273 649.372047c-21.055026-14.079349-45.309904-21.503005-70.396745-21.503006H79.292333v-0.127994z m683.040409-456.042908a33.214464 33.214464 0 0 0-28.158698 16.191251 39.870156 39.870156 0 0 0 8.767595 52.157588c48.445759 36.54231 76.220475 89.08388 76.220475 143.99334 0 54.90946-27.774715 107.323036-76.156478 143.99334a39.870156 39.870156 0 0 0-8.831592 52.157588 32.318505 32.318505 0 0 0 47.485804 9.599556c67.196892-50.81365 105.851104-125.754184 105.851105-205.750484 0-79.868306-38.590215-154.872837-105.851105-205.750484a31.678535 31.678535 0 0 0-19.327106-6.591695zM853.40053 91.445851a33.790437 33.790437 0 0 0-28.478683 15.679274 35.966337 35.966337 0 0 0 9.471562 48.701748A276.467213 276.467213 0 0 1 955.731797 383.976321a276.723202 276.723202 0 0 1-121.338388 228.341439 35.518357 35.518357 0 0 0-9.471562 48.573754 33.534449 33.534449 0 0 0 47.229816 9.791547A347.183943 347.183943 0 0 0 1023.952642 383.976321c0-114.490705-56.765375-221.685747-151.800979-286.642743a31.934523 31.934523 0 0 0-18.751133-5.887727z"  horiz-adv-x="1024" />

    
    <glyph glyph-name="yonghurediancikuguanli" unicode="&#59225;" d="M773.888 896c43.648 0 79.616-35.968 79.616-80.704v-646.656c0-44.224-35.456-80.768-79.616-80.768H196.864c-43.648 0-79.616-35.968-79.616-80.64 0-44.224 35.52-80.768 79.616-80.768h683.008a26.688 26.688 0 0 1 26.368 26.752V761.856a27.136 27.136 0 0 0 26.88 26.688c14.72 0 26.88-12.288 26.88-27.2V-47.36c0-44.16-35.52-80.704-79.616-80.704H196.864C123.84-128 64-67.84 64 6.656V815.36C64 859.456 99.52 896 143.616 896z m53.248-862.592c14.72 0 26.88-11.84 26.88-26.752a27.136 27.136 0 0 0-26.88-26.688H196.864a26.688 26.688 0 0 0-26.368 26.688c0 14.912 11.648 26.752 26.368 26.752zM770.176 832h-616.96A25.536 25.536 0 0 1 128 806.144s0-692.352 0.448-692.352a117.248 117.248 0 0 0 74.56 26.368h567.168a25.408 25.408 0 0 1 24.704 25.856V806.144A25.088 25.088 0 0 1 770.176 832zM400 768c86.528-13.952 152.832-93.632 152.832-189.824 0-18.24-4.48-36.288-8.832-53.376 15.808 22.336 30.528 48.384 36.032 76.8 34.56-40.32 59.968-96 59.968-153.6-3.392-109.888-88.128-192-192-192-106.048 0-192 85.312-192 198.4 0 64.768 28.032 122.496 72 160A195.712 195.712 0 0 1 400 768z m37.888-63.68c-10.88-53.696-46.464-102.208-87.552-135.232C313.216 537.6 298.88 498.56 299.008 448c0-90.24 59.904-141.824 147.648-141.824 85.632 0 133.312 48.192 144 130.56 0 23.296 0.32 46.08-9.344 68.992l-2.176 4.928-3.264-5.376a370.56 370.56 0 0 0-10.88-16.128c-23.872-33.792-75.328 0.384-64.896 41.152l2.56 10.56c3.648 15.04 4.928 28.416 4.928 37.312 0 62.208-18.816 102.144-69.696 126.08z"  horiz-adv-x="1024" />

    
    <glyph glyph-name="shujuquanxian" unicode="&#59226;" d="M510.976001 640.25504c-70.591912 0-128.06384-59.967925-128.06384-133.631833 0-62.719922 41.599948-116.671854 99.839876-130.367837v-154.623807a28.799964 28.799964 0 0 1 28.159964-29.439963c15.423981 0 28.159965 13.311983 28.159965 29.439963V376.31937c58.175927 13.567983 99.839875 67.583916 99.839875 130.367837 0.192 73.535908-57.279928 133.503833-127.93584 133.503833z m0-208.31974c-39.551951 0-71.67991 33.535958-71.67991 74.815907s32.12796 74.751907 71.67991 74.751906c39.61595 0 71.67991-33.471958 71.679911-74.751906 0-41.279948-32.06396-74.815906-71.679911-74.815907zM911.6155 762.942886h-0.127999a993.086759 993.086759 0 0 0-99.199876 9.727988A708.159115 708.159115 0 0 0 546.559957 886.590732 50.559937 50.559937 0 0 1 516.863994 895.99872c-1.599998 0-3.199996-0.128-4.799994-0.256C510.464002 895.87072 508.864004 895.99872 507.264006 895.99872a51.903935 51.903935 0 0 1-29.759963-9.471988 707.071116 707.071116 0 0 0-265.791668-113.855858c-40.895949-6.079992-76.543904-8.639989-99.327875-9.727988A50.559937 50.559937 0 0 1 64.00056 712.510949v-353.919557c0-50.111937 24.511969-118.271852 69.311913-191.99976l0.64-1.087999c44.799944-75.263906 103.487871-145.535818 165.247793-198.015752C372.672174-94.976041 446.080082-128 511.424001-128h1.471998c65.279918 0 138.559827 33.023959 212.031735 95.487881 61.631923 52.479934 120.19185 122.623847 165.119793 197.759752l0.767999 1.407999c44.671944 73.791908 69.183914 142.079822 69.183914 191.99976V712.574949a50.623937 50.623937 0 0 1-48.38394 50.431937zM191.488401 196.095595c-0.831999 1.471998-1.663998 2.943996-2.687997 4.415994l-0.575999 0.895999a151.295811 151.295811 0 0 1-2.943997 4.799994c-33.343958 56.895929-52.415934 108.031865-52.415934 140.351825v350.719561c30.719962 2.175997 61.695923 6.143992 91.967885 12.287985C311.424251 722.878936 430.720102 753.086899 512 822.398812c81.343898-69.119914 200.511749-99.455876 287.103641-112.767859 30.399962-6.015992 61.247923-10.111987 91.903885-12.223985v-350.911561c0-32.19196-19.007976-83.327896-52.351934-140.159825l-2.943997-4.991994-0.575999-0.895999a34.943956 34.943956 0 0 1-2.687997-4.415994l-2.943996-4.927994a819.198976 819.198976 0 0 0-88.19189-116.223855l-0.639999-0.639999-0.831999-0.831999c-80.511899-85.247893-165.759793-136.511829-227.711715-136.895829-62.079922 0.384-147.327816 51.647935-228.095715 137.023829l-0.639999 0.639999a37.119954 37.119954 0 0 1-3.391996 3.199996 821.502973 821.502973 0 0 0-84.479894 111.99986l-3.967995 6.783992z"  horiz-adv-x="1024" />

    
    <glyph glyph-name="yonghucanshu" unicode="&#59227;" d="M699.328 70.656a13.76 13.76 0 0 0 12.928-18.432l-23.04-63.552a12.8 12.8 0 0 1 12.096-17.152h264.704a12.8 12.8 0 0 1 12.032 17.152l-23.744 64.96a12.672 12.672 0 0 0 11.904 17.024c11.072 0 20.608-6.592 24.32-16.576l31.488-83.456a25.6 25.6 0 0 0-23.936-34.624h-332.16a25.6 25.6 0 0 0-23.936 34.624l31.488 83.456a25.6 25.6 0 0 0 23.936 16.576z m222.528 127.616c14.08 0 24.96-18.56 25.6-27.328v-159.808c0-8.832-11.52-16.128-25.6-16.128-14.016 0-25.6 7.296-25.6 16.128V170.88c0 8.768 11.584 27.328 25.6 27.328z m-179.456 9.664c14.016 0 24.96-22.08 25.6-29.504v-164.864c0-7.424-11.584-13.568-25.6-13.568-14.016 0-25.6 6.144-25.6 13.568v164.864c0 7.424 11.584 29.504 25.6 29.504z m96 122.752c14.016 0 25.6-17.92 25.6-26.624v-288.128c0-8.768-11.584-15.936-25.6-15.936-14.016 0-25.6 7.168-25.6 15.936V304c0 8.768 11.584 26.624 25.6 26.624zM608-64h-384a160 160 0 1 0 0 320h384a32 32 0 0 1 0 64h-384a224 224 0 1 1 0-448h384a32 32 0 1 1 0 64zM384 896a256 256 0 1 0 0-512 256 256 0 0 0 0 512z m0-64a192 192 0 1 1 0-384 192 192 0 0 1 0 384zM128 128m32 0l192 0q32 0 32-32l0 0q0-32-32-32l-192 0q-32 0-32 32l0 0q0 32 32 32Z"  horiz-adv-x="1024" />

    
    <glyph glyph-name="yonghutuijiangongnengguanli" unicode="&#59228;" d="M39.3248 163.392l5.248-2.048 433.728-220.544 433.728 210.176a30.464 30.464 0 0 0 41.088-16.256c6.4-14.528 1.664-31.488-10.368-40.32l-4.864-3.008-446.912-216.448a29.184 29.184 0 0 0-21.952-1.472l-4.352 1.792L17.7568 102.4a33.6 33.6 0 0 0-14.464 43.648 30.4 30.4 0 0 0 36.032 17.408z m0 251.84l5.248-2.304 433.728-244.928 132.16 71.168v-80.128l-119.488-64.384a26.56 26.56 0 0 0-21.952-1.6l-4.352 1.984L17.7568 347.392c-15.424 8.768-21.824 30.464-14.464 48.512 6.592 16.128 21.952 23.872 36.032 19.328zM476.0608 894.912l4.992-1.92 456.896-228.48a34.432 34.432 0 0 0 17.984-31.104 35.008 35.008 0 0 0-13.248-27.52l-5.184-3.2-446.912-215.744a27.648 27.648 0 0 0-21.312-1.536l-4.224 1.728L18.1408 613.888A34.56 34.56 0 0 0 0.2208 644.736c0 11.008 4.992 21.12 12.992 27.456l5.12 3.2 173.12 86.4c15.616 7.68 33.92 0.192 40.96-16.832a35.84 35.84 0 0 0-10.496-41.856l-4.864-3.008-111.744-55.68 373.12-189.44 371.2 179.2-116.416 58.112-264.96 132.544-57.984-28.8c-15.616-7.744-33.92-0.256-40.96 16.768A35.84 35.84 0 0 0 379.7408 854.656L384.6688 857.6 455.4528 892.928a28.224 28.224 0 0 0 20.608 1.92zM338.9088 800.768c5.888-16.896 1.472-36.48-9.92-46.592l-4.544-3.328-9.984-5.888a23.36 23.36 0 0 0-12.032-3.392c-11.2 0-21.76 8.192-26.56 22.144-5.888 16.832-1.472 36.416 9.92 46.592l4.544 3.328 9.984 5.824c14.656 8.576 32 0.256 38.592-18.688zM853.4688 530.304a23.04 23.04 0 0 0 20.8-14.528l40.128-90.944 89.792-14.592a24.128 24.128 0 0 0 18.88-17.6 28.224 28.224 0 0 0-5.76-26.752l-64.96-70.784 15.36-100.096a28.352 28.352 0 0 0-5.12-21.12 22.4 22.4 0 0 0-17.792-9.344l-0.128 0.128a21.312 21.312 0 0 0-10.88 3.008l-80.256 47.232-80.256-47.232a21.248 21.248 0 0 0-24.512 1.984 27.52 27.52 0 0 0-9.216 25.472l15.296 100.096-64.96 70.656a28.224 28.224 0 0 0-5.888 26.688 24.192 24.192 0 0 0 18.816 17.728l89.792 14.592 40.064 90.88a23.04 23.04 0 0 0 20.8 14.528z m0.064-66.176l-30.976-66.752a23.68 23.68 0 0 0-17.536-14.272l-73.6-5.12 58.88-56.576a27.968 27.968 0 0 0 6.72-23.04l-22.4-88.576 68.096 51.968a21.056 21.056 0 0 0 21.696 0l64.384-51.968-18.752 88.576a28.032 28.032 0 0 0 6.72 23.04l65.088 56.512-77.504 5.184a23.68 23.68 0 0 0-17.536 14.272l-33.28 66.752z"  horiz-adv-x="1024" />

    
    <glyph glyph-name="zhanneixiaoxi" unicode="&#59229;" d="M937.408 93.888l-62.144 62.528a61.696 61.696 0 0 0-16.96 39.872V475.008c0 164.992-107.328 301.504-259.84 341.376C587.072 856.192 553.152 896 507.968 896c-50.816 0-84.736-34.112-90.368-79.616-152.576-39.872-259.84-182.08-259.84-341.376v-278.72c0-11.392-11.328-34.176-17.024-39.872l-62.08-56.832c-16.96-17.088-16.96-40.704-11.328-68.288 16.512-31.232 28.224-39.04 56.512-39.04h220.288C372.48-76.16 440.192-128 508.032-128c73.472 0 135.616 51.904 163.84 120.192h231.68c22.528 0 39.488 10.624 50.816 33.408a54.528 54.528 0 0 1-16.96 68.288z m-429.376-159.36c-39.552 0-73.408 23.552-96 57.664h197.696c-22.592-34.112-56.512-57.6-101.696-57.6z m-386.368 113.856l56.512 62.528c22.592 17.088 39.552 51.2 39.552 85.376V475.008c0 136.576 101.696 261.76 237.248 290.176 11.328 0 22.592 11.328 22.592 28.416v11.392c0 17.024 18.752 24.832 30.464 24.832 11.776 0 30.464-2.112 30.464-24.832V793.6c0-11.392 11.328-22.784 22.592-28.416 135.616-28.48 237.312-147.968 237.312-290.176l-5.696-278.72c0-34.176 11.328-62.592 39.552-85.376l67.84-62.528H121.6z"  horiz-adv-x="1024" />

    
    <glyph glyph-name="yujingguizepeizhi" unicode="&#59230;" d="M45.056-64C20.16-64 0-49.664 0-32s20.16 32 45.056 32h549.888c16.128 0 30.976-6.08 39.04-16a24.256 24.256 0 0 0 0-32c-8.064-9.92-22.912-16-39.04-16H45.056zM587.072 369.472h-50.048a23.488 23.488 0 0 0-23.424 23.424v128c0 24.448-32.704 32.64-44.16 11.008L371.392 348.096a23.424 23.424 0 0 1 20.672-34.496h54.336c12.992 0 23.424-10.496 23.424-23.424v-117.824c0-24.384 32.512-32.64 44.16-11.2l93.632 173.696a23.424 23.424 0 0 1-20.608 34.56M512 832a384 384 0 0 0 384-384v-32a32 32 0 1 0-64 0V448a320 320 0 0 1-639.68 13.888L192 448v-512H128V448a384 384 0 0 0 384 384zM779.776 320a35.52 35.52 0 0 0 22.976-9.28c25.088-22.08 36.736-22.912 58.88-4.288 21.12 17.856 33.856 17.856 65.216-0.768 10.304-5.504 19.968-12.416 28.736-20.48 3.904-12.416 5.12-25.6 3.584-38.592-0.64-32.192-0.64-32.192 11.328-43.072a61.632 61.632 0 0 1 27.648-13.184c21.888-3.456 25.856-13.12 25.856-60.096s-4.48-60.864-22.976-64.32c-34.944-7.04-46.208-24.128-42.624-64.384l2.56-26.368-14.208-9.28c-18.56-14.08-39.424-24.128-61.568-29.888a47.36 47.36 0 0 0-22.912 11.264c-28.416 23.68-39.36 23.68-60.8 0-14.08-15.872-32.64-14.912-61.44 2.56-31.68 19.264-35.648 25.6-32.768 52.992 2.048 11.392 1.408 23.104-1.792 34.176a48.448 48.448 0 0 1-37.888 27.136c-21.12 0-30.976 29.824-26.56 83.712 2.176 32.192 8.768 42.24 28.416 45.76a48.448 48.448 0 0 1 28.032 16.32c12.352 13.12 12.672 13.504 10.176 39.488a120.32 120.32 0 0 0 0 33.344A157.44 157.44 0 0 0 779.776 320z m104.384-49.28l-8.32-7.808a51.712 51.712 0 0 0-43.008-16.64 54.592 54.592 0 0 0-36.8 11.968l-17.472 12.032-16.384-10.112c-15.68-10.048-16.384-10.88-14.208-24.832 3.648-36.224-16.512-70.4-48.832-82.56l-15.68-4.8 1.088-25.6c1.088-24.832 1.088-25.216 13.12-28.352 10.368-4.608 19.712-11.328 27.712-19.712 17.472-16.192 25.984-40.768 22.592-65.152-2.176-13.952-1.408-15.168 13.184-24.448 5.696-3.84 11.648-7.232 17.792-10.048a52.16 52.16 0 0 1 10.688 10.432 56.768 56.768 0 0 0 81.92 6.208l16-12.352 16.064 8.512 16.384 8.128-2.176 18.624a60.928 60.928 0 0 0 7.68 39.936 64.64 64.64 0 0 0 43.328 40.704l13.568 4.864v52.736l-13.12 2.304c-32.64 11.072-53.952 44.608-51.328 81.024l2.176 17.088-17.856 8.96-18.112 8.832z m-30.848-72.768c28.16-9.408 47.744-36.736 48.768-68.16 1.024-31.424-16.704-60.16-44.224-71.616a54.272 54.272 0 0 0-41.664-1.728c-32.192 7.424-54.4 38.72-52.48 73.6a66.624 66.624 0 0 0 37.12 63.616 50.88 50.88 0 0 0 52.48 4.288z m-32.32-37.888a33.664 33.664 0 0 1-21.312-31.872c0-14.336 8.576-27.136 21.312-31.872 12.8-4.736 26.88-0.32 35.264 10.88a27.52 27.52 0 0 1 9.472 20.992 27.52 27.52 0 0 1-9.472 20.928 30.528 30.528 0 0 1-35.264 10.944z"  horiz-adv-x="1024" />

    
    <glyph glyph-name="zhuanyezhuanlan" unicode="&#59231;" d="M850.304-128h-10.624l-305.28 163.584a64 64 0 0 1-61.696-0.704L184.768-128h-11.072c-60.544 0.064-109.632 41.728-109.696 93.056V802.944C64 854.272 113.152 895.936 173.696 896h676.608c60.544-0.064 109.632-41.728 109.696-93.056v-837.888c0-51.328-49.152-92.992-109.696-93.056zM896 801.088c0 17.088-16.768 30.912-37.504 30.912H165.504C144.768 832 128 818.176 128 801.088v-835.072c0-14.336 11.904-26.432 27.968-29.952l316.096 173.952a64 64 0 0 0 60.416 0.704L867.584-64c16.64 3.456 28.416 15.808 28.416 30.016V801.088z m-545.664-448a31.168 31.168 0 0 0-30.336 32c0 17.6 13.568 32 30.336 32h323.328c16.768 0 30.336-14.4 30.336-32 0-17.728-13.568-32-30.336-32H350.336z m0 165.12a31.168 31.168 0 0 0-30.336 32c0 17.664 13.568 32 30.336 32h323.328c16.768 0 30.336-14.336 30.336-32s-13.568-32-30.336-32H350.336z"  horiz-adv-x="1024" />

    
    <glyph glyph-name="zuhu" unicode="&#59232;" d="M736 320a224 224 0 1 0 0-448h-448a224 224 0 1 0 0 448h448z m0-64h-448a160 160 0 1 1 0-320h448a160 160 0 1 1 0 320zM512 896a256 256 0 1 0 0-512 256 256 0 0 0 0 512z m0-64a192 192 0 1 1 0-384 192 192 0 0 1 0 384z"  horiz-adv-x="1024" />

    
    <glyph glyph-name="zuhucanshumoban" unicode="&#59233;" d="M672-64h-384a160 160 0 1 0 0 320h384a32 32 0 0 1 0 64h-384a224 224 0 1 1 0-448h384a32 32 0 1 1 0 64zM887.936 192c18.88 0.384 33.92 14.592 33.92 32s-15.04 31.616-33.92 32h-148.352a35.52 35.52 0 0 1-30.784-15.808c-6.4-9.984-6.4-22.4 0-32.384 6.4-10.048 18.176-16.064 30.72-15.808h148.48zM737.728 128a33.216 33.216 0 0 1-29.184-15.808 31.168 31.168 0 0 1 0-32.384c6.08-10.048 17.28-16.064 29.184-15.808h214.4a33.216 33.216 0 0 1 29.248 15.808 31.168 31.168 0 0 1 0 32.384 33.216 33.216 0 0 1-29.184 15.808h-214.4zM732.672 0h134.656a27.456 27.456 0 0 0 24.832-15.808c5.12-9.984 5.12-22.4 0-32.384a27.456 27.456 0 0 0-24.832-15.808h-134.656a27.456 27.456 0 0 0-24.832 15.808 35.968 35.968 0 0 0 0 32.384 27.456 27.456 0 0 0 24.832 15.808zM448 896a256 256 0 1 0 0-512 256 256 0 0 0 0 512z m0-64a192 192 0 1 1 0-384 192 192 0 0 1 0 384zM263.232 55.36a9.088 9.088 0 0 0 8.512-12.352l-15.552-41.6a7.68 7.68 0 0 1 7.232-10.368h179.392a7.68 7.68 0 0 1 7.168 10.368l-16 42.56a8.384 8.384 0 0 0 7.808 11.392h1.6a15.36 15.36 0 0 0 14.336-9.792l22.016-56.64a15.36 15.36 0 0 0-14.336-20.928H238.592a15.36 15.36 0 0 0-14.336 20.928l22.016 56.64a15.36 15.36 0 0 0 14.336 9.792z m148.864 82.752c9.408 0 16.768-12.032 17.152-17.728v-103.68c0-5.76-7.744-10.432-17.152-10.432-9.344 0-17.088 4.736-17.088 10.432v103.68c0 5.76 7.68 17.728 17.088 17.728z m-120.064 6.272c9.408 0 16.768-14.336 17.152-19.2v-106.88c0-4.8-7.744-8.768-17.152-8.768-9.344 0-17.088 3.968-17.088 8.768v106.88c0 4.864 7.68 19.2 17.088 19.2zM356.288 224c9.344 0 17.152-11.584 17.152-17.28v-186.88c0-5.632-7.808-10.304-17.152-10.304-9.408 0-17.152 4.672-17.152 10.24v187.008c0 5.632 7.744 17.216 17.152 17.216z"  horiz-adv-x="1024" />

    
    <glyph glyph-name="zuhucanshu" unicode="&#59234;" d="M608 320a32 32 0 0 0 0-64h-384a160 160 0 1 1 0-320h384a32 32 0 1 0 0-64h-384a224 224 0 1 0 0 448z m84.608-228.032a13.76 13.76 0 0 0 13.696-14.848l-0.768-3.584-23.04-63.552a12.8 12.8 0 0 1 8.64-16.704l3.456-0.448h264.704a12.8 12.8 0 0 1 12.8 13.824l-0.768 3.392-23.744 64.896a12.672 12.672 0 0 0 8.512 16.576l3.392 0.448c9.216 0 17.344-4.608 22.016-11.904l2.304-4.672 31.488-83.456a25.6 25.6 0 0 0-18.816-34.112l-5.12-0.512H659.2a25.6 25.6 0 0 0-25.28 29.632l1.28 4.992 31.488 83.456a25.6 25.6 0 0 0 18.752 16l5.248 0.576h1.92z m222.528 127.616c12.288 0 22.208-14.208 24.96-23.68l0.64-3.648v-159.808c0-8.832-11.52-16.128-25.6-16.128-12.288 0-22.656 5.568-25.088 12.864l-0.512 3.2v159.872c0 8.768 11.584 27.328 25.6 27.328z m-179.456 9.664c12.48 0 22.528-17.408 24.96-26.56l0.64-2.944v-164.864c0-7.424-11.584-13.568-25.6-13.568-12.288 0-22.656 4.736-25.088 10.88l-0.512 2.688v164.864c0 7.424 11.52 29.504 25.6 29.504z m96 122.752c12.288 0 22.656-13.696 25.088-22.976l0.512-3.584v-288.192c0-8.704-11.584-15.936-25.6-15.936-12.288 0-22.656 5.504-25.088 12.736l-0.512 3.2V325.44c0 8.704 11.52 26.56 25.6 26.56zM384 896a256 256 0 1 0 0-512 256 256 0 0 0 0 512z m0-64a192 192 0 1 1 0-384 192 192 0 0 1 0 384z"  horiz-adv-x="1024" />

    
    <glyph glyph-name="zixitong" unicode="&#59235;" d="M480 512H384a128 128 0 0 0-128 128V768a128 128 0 0 0 128 128h256a128 128 0 0 0 128-128v-128a128 128 0 0 0-128-128H544v-128h192a128 128 0 0 0 128-128v-64h32a128 128 0 0 0 128-128v-64a128 128 0 0 0-128-128h-128a128 128 0 0 0-128 128v64a128 128 0 0 0 128 128h32v64a64 64 0 0 1-64 64h-448a64 64 0 0 1-63.552-56.512L224 256v-64H256a128 128 0 0 0 128-128v-64a128 128 0 0 0-128-128H128a128 128 0 0 0-128 128v64a128 128 0 0 0 128 128h32v64a128 128 0 0 0 128 128h192V512zM256 128H128a64 64 0 0 1-63.552-56.512L64 64v-64a64 64 0 0 1 56.512-63.552L128-64h128a64 64 0 0 1 63.552 56.512L320 0v64a64 64 0 0 1-64 64z m640 0h-128a64 64 0 0 1-63.552-56.512L704 64v-64a64 64 0 0 1 56.512-63.552L768-64h128a64 64 0 0 1 63.552 56.512L960 0v64a64 64 0 0 1-64 64zM640 832H384a64 64 0 0 1-63.552-56.512L320 768v-128a64 64 0 0 1 56.512-63.552L384 576h256a64 64 0 0 1 63.552 56.512L704 640V768a64 64 0 0 1-64 64z"  horiz-adv-x="1024" />

    
    <glyph glyph-name="zhengcefagui" unicode="&#59236;" d="M896 896a128 128 0 0 0 128-128v-768a128 128 0 0 0-128-128H128a128 128 0 0 0-128 128V768a128 128 0 0 0 128 128h768z m19.2-64H108.8a44.8 44.8 0 0 1-44.8-44.8v-806.4a44.8 44.8 0 0 1 44.8-44.8h806.4a44.8 44.8 0 0 1 44.8 44.8V787.2a44.8 44.8 0 0 1-44.8 44.8z m-232.512-704c23.552 0 42.624-14.336 42.624-32s-19.072-32-42.624-32H341.312c-23.552 0-42.624 14.336-42.624 32s19.072 32 42.624 32h341.376zM512 768c9.92 0 18.88-5.76 23.04-14.848l65.28-138.496 145.792-22.08a26.24 26.24 0 0 0 20.608-18.048c3.008-9.6 0.64-20.032-6.4-27.264l-106.496-107.52 25.024-152.32a27.84 27.84 0 0 0-10.24-26.24 23.488 23.488 0 0 0-26.496-2.048L511.936 331.2 381.888 259.136a24.512 24.512 0 0 0-27.008 2.048 27.968 27.968 0 0 0-10.24 26.24l24.96 152.32L263.68 547.2a27.968 27.968 0 0 0-6.4 27.264 24.576 24.576 0 0 0 20.608 18.048l145.792 22.08 65.28 138.496A25.344 25.344 0 0 0 512 768H512z m-0.512-86.976l-48.128-102.4a25.6 25.6 0 0 0-19.136-14.336l-107.52-16.512 78.08-79.744a27.712 27.712 0 0 0 7.36-23.68l-18.112-112.64 96.128 52.928a17.28 17.28 0 0 0 11.328 3.584 23.68 23.68 0 0 0 11.712-3.136l96.256-52.928-18.176 112.64a27.84 27.84 0 0 0 7.424 23.68l78.016 79.808-107.52 16.448a24.768 24.768 0 0 0-19.2 14.4L511.552 680.96z"  horiz-adv-x="1024" />

    
    <glyph glyph-name="wenjianzhongxin1" unicode="&#59237;" d="M894.144 896a65.92 65.92 0 0 0 65.92-65.92v-659.2c0-17.472-6.976-34.176-19.328-46.464l-232.832-233.088a70.976 70.976 0 0 0-48.896-19.328H133.504a65.92 65.92 0 0 0-65.92 65.92V830.08C67.712 866.496 97.216 896 133.568 896z m-16.32-64.384H155.776c-16.32 0-23.936-1.088-23.936-17.408v-862.72c0-16.384 7.616-15.872 23.936-16h484.48v191.424c0 36.416 28.736 65.024 65.088 65.088H896V814.208c-0.064 16.32-1.792 17.28-18.112 17.408z m-30.784-704.64l-112-0.064a29.76 29.76 0 0 1-29.696-29.632v-112.128l141.696 141.76zM734.08 323.712a33.92 33.92 0 1 0 0-67.776H288.512a33.92 33.92 0 1 0 0 67.776z m0 190.08a33.92 33.92 0 1 0 0-67.712H288.512a33.92 33.92 0 1 0 0 67.712z m0 190.144a33.92 33.92 0 1 0 0-67.776H288.512a33.92 33.92 0 1 0 0 67.776z"  horiz-adv-x="1024" />

    
    <glyph glyph-name="zhangtaocanshumoban" unicode="&#59238;" d="M511.488224 895.936028c120.651215 0 226.588867-8.124446 300.156681-26.932217 41.197976-10.81127 76.446555-21.558568 100.052228-37.743487 26.036609-14.329731 43.117136-38.894983 46.507652-66.275005a32.049978 32.049978 0 0 0 1.599301-11.195102v-444.989317a34.608859 34.608859 0 0 0-34.928719-33.393391 34.608859 34.608859 0 0 0-34.864747 33.393391l0.063972 110.287749a388.18217 388.18217 0 0 0-72.544262-24.117449c-79.517211-18.871744-185.454863-26.932217-306.042106-26.932217-123.593928 0-226.588867 8.060474-300.156682 26.868245-29.427126 7.676641-55.783595 15.417255-77.086274 25.077029l0.127944-156.155682a28.531517 28.531517 0 0 0 0.447804-6.205285c0-13.434123 23.541701-32.305866 94.166802-48.490785 70.625102-16.120947 167.734616-24.245393 285.443118-24.245393 19.319548-0.191916 34.992691-14.521647 35.248579-32.241894-3.390517-17.400387-18.999688-30.642594-38.191291-32.369838-123.593928 0-226.588867 8.060474-300.156682 26.868245-29.427126 7.676641-55.783595 15.353283-77.086274 25.077028l0.127944-156.155681a28.531517 28.531517 0 0 0 0.447804-6.205286c0-13.434123 23.541701-32.305866 94.166802-48.490785 70.625102-16.120947 167.734616-24.245393 285.443118-24.245393 19.38352-0.191916 34.992691-14.585619 35.248579-32.305866-3.390517-17.400387-18.999688-30.578622-38.191291-32.369838-123.593928 0-226.588867 8.124446-300.156682 26.932217-41.197976 10.81127-76.510527 21.558568-100.052227 37.743487a94.998438 94.998438 0 0 0-26.868245 21.878429 32.945586 32.945586 0 0 0-19.831324 29.299181l-0.191916 18.10408A81.820204 81.820204 0 0 0 64.195914 9.859686l0.31986 2.878741-0.127944 241.494346A81.820204 81.820204 0 0 0 64.195914 257.559318l0.31986 2.87874-0.127944 241.494347A81.820204 81.820204 0 0 0 64.195914 505.386893l0.31986 2.942713V754.493909A37.551571 37.551571 0 0 0 64.195914 758.588118c1.27944 29.938902 18.999688 57.254951 47.083401 72.672206C134.821016 847.445243 167.190854 858.256513 211.331542 869.003811a1497.712751 1497.712751 0 0 0 300.156682 26.868245z m291.712376-959.580184a27.443993 27.443993 0 0 0 24.82114-15.737115c5.117761-9.979634 5.117761-22.390204 0-32.369838a27.443993 27.443993 0 0 0-24.82114-15.801087h-134.597114a27.443993 27.443993 0 0 0-24.821141 15.801087 35.952271 35.952271 0 0 0 0 32.369838 27.443993 27.443993 0 0 0 24.821141 15.801087h134.597114z m84.826888 127.944025a33.201474 33.201474 0 0 0 29.171238-15.737115 31.15437 31.15437 0 0 0 0-32.369838 33.009558 33.009558 0 0 0-23.285813-15.353283l-5.885425-0.447804h-214.306241a33.201474 33.201474 0 0 0-29.23521 15.801087 31.15437 31.15437 0 0 0 0 32.369838 33.009558 33.009558 0 0 0 23.285813 15.353283l5.885425 0.447804h214.306241z m-64.2279 127.944024c18.871744-0.31986 33.905166-14.521647 33.905166-31.922034a32.75367 32.75367 0 0 0-27.763853-31.346286l-6.141313-0.63972h-148.287125a35.504467 35.504467 0 0 0-30.770538 15.801087 29.810958 29.810958 0 0 0 0 32.369838 34.928719 34.928719 0 0 0 24.565253 15.353283l6.205285 0.447804h148.287125z m66.275004 482.668833c-24.949085-11.642906-51.241582-20.598988-78.429687-26.740301-73.567814-18.871744-179.569438-26.996189-300.156681-26.99619-123.593928 0-226.588867 8.124446-300.156682 26.932218-29.427126 7.676641-55.783595 15.353283-77.086274 25.077028l0.127944-161.593303a28.531517 28.531517 0 0 0 0.447804-6.205285c0-13.434123 23.541701-32.305866 94.166802-48.490785 70.625102-16.120947 167.734616-24.245393 285.443118-24.245393 117.708503 0 214.754045 8.124446 285.379147 24.309365 54.760042 12.474542 81.244456 26.612357 90.328481 38.639095l-0.063972 179.313551zM511.488224 828.573499c-263.56469 0-364.064722-41.32592-377.882676-66.786781 0.63972-2.366964 0.831636-4.861873 0.703692-7.292809v-6.397201c7.484725-12.346598 33.777222-27.443993 91.735865-40.6862 70.625102-16.184919 167.734616-24.309365 285.443119-24.309365 117.708503 0 214.818017 8.124446 285.443119 24.309365 62.372712 14.265759 88.025489 30.706566 93.143249 43.500968v2.878741l0.511776 4.797901c-7.420753 22.838008-105.169988 69.985381-379.098144 69.985381z"  horiz-adv-x="1024" />

    
    <glyph glyph-name="zhangtaocanshu" unicode="&#59239;" d="M511.488224 895.936028c120.651215 0 226.588867-8.124446 300.156681-26.932217 41.197976-10.81127 76.446555-21.558568 100.052228-37.743487 26.036609-14.329731 43.117136-38.894983 46.507652-66.275005a32.049978 32.049978 0 0 0 1.599301-11.195102v-444.989317a34.608859 34.608859 0 0 0-34.928719-33.393391 34.608859 34.608859 0 0 0-34.864747 33.393391l0.063972 110.287749a388.18217 388.18217 0 0 0-72.544262-24.117449c-79.517211-18.871744-185.454863-26.932217-306.042106-26.932217-123.593928 0-226.588867 8.060474-300.156682 26.868245-29.427126 7.676641-55.783595 15.417255-77.086274 25.077029l0.127944-156.155682a28.531517 28.531517 0 0 0 0.447804-6.205285c0-13.434123 23.541701-32.305866 94.166802-48.490785 70.625102-16.120947 167.734616-24.245393 285.443118-24.245393 19.319548-0.255888 34.992691-14.521647 35.248579-32.241894-3.390517-17.400387-18.999688-30.642594-38.191291-32.369838-123.593928 0-226.588867 8.060474-300.156682 26.868245-29.427126 7.676641-55.783595 15.353283-77.086274 25.077028l0.127944-156.155681a28.531517 28.531517 0 0 0 0.447804-6.205286c0-13.434123 23.541701-32.305866 94.166802-48.490785s167.734616-24.245393 285.443118-24.245393c19.38352-0.255888 34.992691-14.585619 35.248579-32.305866-3.390517-17.400387-18.999688-30.578622-38.191291-32.369838-123.593928 0-226.588867 8.124446-300.156682 26.932217-41.197976 10.81127-76.510527 21.558568-100.052227 37.743487a94.998438 94.998438 0 0 0-26.804273 21.750485 33.009558 33.009558 0 0 0-19.895296 29.427125l-0.191916 18.10408A81.820204 81.820204 0 0 0 64.195914 9.859686l0.31986 2.878741-0.127944 241.430374A81.820204 81.820204 0 0 0 64.195914 257.62329l0.31986 2.87874-0.063972 241.430375A81.820204 81.820204 0 0 0 64.195914 505.386893l0.31986 2.942713V754.493909A37.551571 37.551571 0 0 0 64.195914 758.588118c1.27944 29.938902 18.999688 57.254951 47.083401 72.672206C134.821016 847.445243 167.190854 858.256513 211.331542 869.003811a1497.712751 1497.712751 0 0 0 300.156682 26.868245z m123.465984-835.602424a13.753983 13.753983 0 0 0 13.69001-14.841507l-0.767664-3.582432-23.029924-63.524209a12.794402 12.794402 0 0 1 8.636221-16.696695l3.454489-0.447804h264.588243a12.794402 12.794402 0 0 1 12.794402 13.817955l-0.767664 3.326544-23.733617 64.931593a12.666458 12.666458 0 0 0 8.508278 16.568751l3.390517 0.447804c9.21197 0 17.336415-4.605985 22.006372-11.898794l2.302992-4.669957 31.47423-83.419504a25.588805 25.588805 0 0 0-18.807771-34.097083l-5.117761-0.511776H601.560817a25.588805 25.588805 0 0 0-25.268945 29.619042l1.279441 4.989817 31.47423 83.419504a25.588805 25.588805 0 0 0 18.743799 15.993003l5.245705 0.575748h1.919161z m222.430686 127.560192c12.282626 0 22.198288-14.201787 24.949085-23.669644l0.63972-3.646405v-159.738114c0-8.828138-11.514962-16.120947-25.588805-16.120947-12.282626 0-22.646092 5.565565-25.077029 12.858374l-0.511776 3.198601v159.802086c0 8.764166 11.578934 27.316049 25.588805 27.316049z m-179.377522 9.659774c12.474542 0 22.518148-17.400387 24.949085-26.548385l0.63972-2.942712v-164.791904c0-7.420753-11.578934-13.562067-25.588805-13.562066-12.282626 0-22.646092 4.669957-25.077029 10.875242l-0.511776 2.686824v164.791904c0 7.420753 11.514962 29.491098 25.588805 29.491097zM773.96539 320.25189c12.282626 0 22.646092-13.690011 25.077029-22.965953l0.511776-3.582432v-288.065971c0-8.764166-11.578934-15.929031-25.588805-15.929031-12.282626 0-22.646092 5.501593-25.077029 12.73043l-0.511776 3.198601V293.703505c0 8.700194 11.514962 26.548385 25.588805 26.548385z m116.109202 354.660836c-24.949085-11.642906-51.241582-20.598988-78.429687-26.804273-73.567814-18.807772-179.569438-26.868245-300.156681-26.868246-123.593928 0-226.588867 8.060474-300.156682 26.868246-29.427126 7.676641-55.783595 15.353283-77.086274 25.077028l0.127944-161.593303a28.531517 28.531517 0 0 0 0.447804-6.205285c0-13.434123 23.541701-32.305866 94.166802-48.490785 70.625102-16.120947 167.734616-24.245393 285.443118-24.245393 117.708503 0 214.754045 8.124446 285.379147 24.309365 54.760042 12.474542 81.244456 26.612357 90.328481 38.639095l-0.063972 179.313551zM511.488224 828.573499c-263.56469 0-364.064722-41.32592-377.882676-66.786781 0.63972-2.366964 0.831636-4.861873 0.703692-7.292809v-6.397201c7.484725-12.346598 33.777222-27.443993 91.735865-40.6862 70.625102-16.184919 167.734616-24.309365 285.443119-24.309365 117.708503 0 214.818017 8.124446 285.443119 24.309365 62.372712 14.265759 88.025489 30.706566 93.143249 43.500968v2.878741l0.511776 4.797901c-7.420753 22.838008-105.169988 69.985381-379.098144 69.985381z"  horiz-adv-x="1024" />

    
    <glyph glyph-name="zhengfuyusuantianbaobiao" unicode="&#59240;" d="M746.24 895.488c56.576 0 96.128-40.064 96.128-97.472V0c0-57.408-39.488-97.472-96.064-97.472H96C39.552-97.472 0-57.408 0 0V798.016C0 855.424 39.488 895.488 96.128 895.488H746.24z m0-62.016L96.192 833.408c-21.952 0-34.048-12.608-34.048-35.52V0c0-22.784 12.16-35.52 34.048-35.52H746.24c21.888 0 33.984 12.608 33.984 35.52V798.016c0 22.784-12.096 35.456-33.984 35.456zM638.464 75.904c17.088 0 30.976-14.016 30.976-30.976a31.104 31.104 0 0 0-30.976-31.04H204.032a31.104 31.104 0 0 0-31.04 31.04c0 17.088 14.016 30.976 31.04 30.976h434.368zM1024 762.624v-679.296l-30.272-65.536-30.4 65.536V762.624H1024z m-385.6-562.56a31.04 31.04 0 0 0 0-62.016H204.032a31.104 31.104 0 0 0-31.04 31.04c0 17.088 14.016 31.04 31.04 31.04h434.368zM291.072 677.504l1.728-4.672 104.064-388.736c2.56-9.664-1.024-19.84-8.128-24.832l-3.84-2.048L384 256.832c-8.32-2.752-17.024 1.536-21.248 9.92l-1.792 4.48-104.064 388.864a24.832 24.832 0 0 0 1.408 16.64c2.304 5.056 6.336 8.832 11.072 10.432 8.512 3.072 17.408-1.216 21.76-9.728z m165.184-2.432c35.328-24.768 73.984-37.76 104.512-27.392l7.424 3.072 3.712 1.472a15.616 15.616 0 0 0 11.328-1.152 19.264 19.264 0 0 0 8.512-8.768l1.536-4.16 45.248-168.96 0.448-1.92c0.64-2.56 0.96-5.248 1.024-8a31.296 31.296 0 0 0-16.832-28.672c-31.36-14.848-72.96-7.936-105.6 15.616-40.704 29.376-84.224 38.656-120.064 21.12l-8.192-4.608-2.432-1.6a15.68 15.68 0 0 0-14.144-0.64 18.752 18.752 0 0 0-8.448 7.872l-1.728 3.776-0.96 3.392-47.232 176.704-1.28 4.928a34.112 34.112 0 0 0 8 29.44l3.712 3.328 2.944 1.92c37.12 22.656 87.68 11.904 128.512-16.768z"  horiz-adv-x="1024" />

    
    <glyph glyph-name="shenzhan" unicode="&#59196;" d="M746.666667 512c-6.4 0-10.666667-2.133333-14.933333-6.4l0 0L512 307.20000000000005l-219.733333 200.533333 0 0C288 509.866667 283.733333 512 277.333333 512c-12.8 0-21.333333-8.533333-21.333333-21.333333 0-6.4 2.133333-12.8 6.4-14.933333l0 0 234.666667-213.333333 0 0c4.266667-4.266667 8.533333-6.4 14.933333-6.4s10.666667 2.133333 14.933333 6.4l0 0 234.666667 213.333333 0 0c4.266667 4.266667 6.4 8.533333 6.4 14.933333C768 503.466667 759.466667 512 746.666667 512zM896 853.333333L128 853.333333C81.066667 853.333333 42.666667 814.933333 42.666667 768l0-768c0-46.933333 38.4-85.333333 85.333333-85.333333l768 0c46.933333 0 85.333333 38.4 85.333333 85.333333L981.333333 768C981.333333 814.933333 942.933333 853.333333 896 853.333333zM938.666667 0c0-23.466667-19.2-42.666667-42.666667-42.666667L128-42.66666699999996c-23.466667 0-42.666667 19.2-42.666667 42.666667L85.333333 768c0 23.466667 19.2 42.666667 42.666667 42.666667l768 0c23.466667 0 42.666667-19.2 42.666667-42.666667L938.666667 0z"  horiz-adv-x="1024" />

    
    <glyph glyph-name="shousuo" unicode="&#59197;" d="M761.6 292.266667l-234.666667 213.333333 0 0C522.666667 509.866667 518.4 512 512 512s-10.666667-2.133333-14.933333-6.4l0 0-234.666667-213.333333 0 0C258.133333 290.133333 256 283.733333 256 277.33333300000004c0-12.8 8.533333-21.333333 21.333333-21.333333 6.4 0 10.666667 2.133333 14.933333 6.4l0 0L512 460.8l219.733333-200.533333 0 0c4.266667-4.266667 8.533333-6.4 14.933333-6.4 12.8 0 21.333333 8.533333 21.333333 21.333333C768 283.733333 765.866667 290.133333 761.6 292.266667L761.6 292.266667zM896 853.333333L128 853.333333C81.066667 853.333333 42.666667 814.933333 42.666667 768l0-768c0-46.933333 38.4-85.333333 85.333333-85.333333l768 0c46.933333 0 85.333333 38.4 85.333333 85.333333L981.333333 768C981.333333 814.933333 942.933333 853.333333 896 853.333333zM938.666667 0c0-23.466667-19.2-42.666667-42.666667-42.666667L128-42.66666699999996c-23.466667 0-42.666667 19.2-42.666667 42.666667L85.333333 768c0 23.466667 19.2 42.666667 42.666667 42.666667l768 0c23.466667 0 42.666667-19.2 42.666667-42.666667L938.666667 0z"  horiz-adv-x="1024" />

    
    <glyph glyph-name="caizhengzuhu" unicode="&#59066;" d="M478.72 279.38133332999996H350.592a31.936 31.936 0 0 0 0 63.872h89.152L367.104 469.14133333a32.448 32.448 0 0 0 56 32.384l87.68-152.192 87.872 152.192a32.384 32.384 0 0 0 56-32.32L581.952 343.18933332999995h88.768a31.936 31.936 0 0 0 0-63.872H542.528v-63.872h128.192a31.936 31.936 0 0 0 0-63.808H542.528v-96a32.192 32.192 0 0 0-31.872-31.744 31.552 31.552 0 0 0-31.872 31.168V151.63733333000005H350.528a31.936 31.936 0 0 0 0 63.808H478.72v64zM651.328 645.33333333H369.92l-2.112-0.832a346.496 346.496 0 0 1-44.672-22.976 529.408 529.408 0 0 1-102.464-79.168 487.04 487.04 0 0 1-127.04-212.48c-36.736-125.824-31.296-224.192-1.152-297.344 8.576-20.928 16.768-33.984 21.312-39.36l4.096-6.208c10.56-20.48 45.312-40.256 71.168-40.256h321.536v-67.712H189.12c-49.152 0-105.792 31.616-129.536 73.408a238.464 238.464 0 0 0-29.632 54.272c-36.032 87.488-42.24 201.6-1.28 342.208a554.496 554.496 0 0 0 144.384 241.728A596.48 596.48 0 0 0 308.928 691.41333333l-52.736 99.2C226.56 846.29333333 258.56 900.75733333 321.408 900.75733333h189.248v-67.84H321.408c-11.456 0-11.264 0.32-5.504-10.496l60.352-113.28h268.8l60.352 113.28c5.76 10.816 5.888 10.496-5.504 10.496H510.656V900.82133333h189.248c62.848 0 94.912-54.528 65.216-110.272l-52.864-99.2a596.736 596.736 0 0 0 135.872-100.736 554.496 554.496 0 0 0 144.512-241.728c40.96-140.48 34.752-254.784-1.28-342.208a238.4 238.4 0 0 0-29.696-54.272c-23.68-41.792-80.32-73.408-129.472-73.408H510.72v67.84h321.536c25.856 0 60.608 19.776 71.104 40.192l4.16 6.208c4.48 5.376 12.736 18.432 21.312 39.36 30.144 73.152 35.52 171.52-1.152 297.344A486.848 486.848 0 0 1 800.64 542.29333333a529.344 529.344 0 0 1-102.4 79.168 346.688 346.688 0 0 1-44.736 23.04L651.2 645.33333333h0.128z"  horiz-adv-x="1024" />

    
    <glyph glyph-name="fuwuzhuce1" unicode="&#59157;" d="M672-58.66666667000004h-384a160 160 0 1 0 0 320h384a32 32 0 0 1 0 64h-384a224 224 0 1 1 0-448h384a32 32 0 1 1 0 64zM935.488 291.072l-22.72 22.08a24.576 24.576 0 0 1-33.92 0l-28.48-27.52 56.704-55.232 28.352 27.52a22.848 22.848 0 0 1 0.064 33.152zM640 24.70399999999995l90.816 34.88-56.192 54.784L640 24.70399999999995z m45.632 100.48l56.64-55.232 154.432 148.928-56.832 55.296-154.24-148.992zM448 896a256 256 0 1 0 0-512 256 256 0 0 0 0 512z m0-64a192 192 0 1 1 0-384 192 192 0 0 1 0 384z"  horiz-adv-x="1024" />

    
    <glyph glyph-name="caizhengquhua" unicode="&#59159;" d="M512 896a512 512 0 1 0 0-1024A512 512 0 0 0 512 896z m0-64a448 448 0 1 1 0-896A448 448 0 0 1 512 832zM639.552 538.3679999999999c14.592 17.408 23.04 36.608 23.04 54.656 0 29.44-19.584 78.976-150.592 78.976-56.256 0-150.592-10.24-150.592-78.976 0-18.048 8.448-37.248 23.04-54.656-96-58.048-160.448-169.216-160.448-235.712C224 177.15200000000004 337.024 96 512 96s288 81.152 288 206.72c0 66.432-64.384 177.664-160.448 235.648zM512 135.42399999999998c-135.36 0-245.12 53.44-245.12 167.232 0 65.024 84.8 195.456 195.968 227.072-33.984 15.36-58.496 43.456-58.496 63.36 0 28.544 48.192 39.488 107.648 39.488 59.456 0 107.648-10.944 107.648-39.552 0-19.84-24.512-48-58.496-63.36 111.168-31.552 195.904-161.984 195.904-227.008 0-113.792-109.696-167.232-245.056-167.232z m67.968 208.128c11.84 0 21.44 8.832 21.44 19.712 0 10.88-9.6 19.712-21.44 19.712H550.4l32.832 30.272a18.56 18.56 0 0 1 0 27.84 22.848 22.848 0 0 1-30.336 0l-40.64-37.312-40.64 37.312a22.848 22.848 0 0 1-30.336 0 18.56 18.56 0 0 1 0-27.84l32.832-30.272h-30.08c-11.84 0-21.44-8.832-21.44-19.712 0-10.88 9.6-19.712 21.44-19.712h46.528v-21.44h-48.448c-11.84 0-21.44-8.832-21.44-19.712 0-10.88 9.6-19.776 21.44-19.776h48.448v-37.632c0-10.88 9.6-19.712 21.44-19.712 11.84 0 21.44 8.832 21.44 19.712v37.632h44.608c11.84 0 21.44 8.832 21.44 19.776 0 10.88-9.6 19.712-21.44 19.712h-44.608v21.44h46.528z"  horiz-adv-x="1024" />

    
    <glyph glyph-name="gongnengguanli" unicode="&#59162;" d="M66.88 175.744a29.12 29.12 0 0 0 33.792 15.232l4.864-1.792 406.656-192.96 406.656 183.872a29.376 29.376 0 0 0 38.464-14.208 28.288 28.288 0 0 0-9.728-35.328l-4.48-2.56-419.008-189.44a30.592 30.592 0 0 0-20.608-1.28l-4.096 1.6-418.944 198.656a28.48 28.48 0 0 0-13.568 38.208z m0 218.624c6.208 14.144 20.544 20.928 33.792 16.96l4.864-2.048 406.656-214.272 406.656 204.16c14.528 7.424 31.68 0.384 38.464-15.744a33.536 33.536 0 0 0-9.728-39.232l-4.48-2.88-419.008-210.432a26.496 26.496 0 0 0-20.608-1.408l-4.096 1.728L80.448 352c-14.464 7.68-20.48 26.624-13.568 42.368z m423.936 434.944a28.16 28.16 0 0 0 19.328 1.728l4.672-1.728 428.288-199.936a29.888 29.888 0 0 0 4.48-51.2l-4.864-2.816-419.008-188.8a27.52 27.52 0 0 0-19.968-1.28l-3.968 1.472-419.008 198.4a29.952 29.952 0 0 0-4.608 51.008l4.864 2.816 162.304 75.52a28.736 28.736 0 0 0 38.4-14.72 30.08 30.08 0 0 0-9.856-36.544l-4.544-2.688-104.832-48.704L512.32 446.08l347.968 156.8-109.12 50.752-248.32 116.032-54.4-25.216a28.736 28.736 0 0 0-38.4 14.72 30.08 30.08 0 0 0 9.792 36.608l4.544 2.56 66.432 30.912zM345.344 765.056c13.76 7.488 29.952 0.192 36.16-16.384 5.504-14.72 1.408-31.872-9.28-40.768l-4.288-2.944-9.344-5.12a23.04 23.04 0 0 0-11.264-2.944c-10.496 0-20.416 7.168-24.96 19.328-5.504 14.72-1.28 31.872 9.344 40.768l4.288 2.944 9.344 5.12z"  horiz-adv-x="1024" />

    
    <glyph glyph-name="daimajiheguanli" unicode="&#59163;" d="M848-64H176C113.856-64 64-14.144 64 48V720C64 782.144 113.856 832 176 832h672c62.144 0 112-49.856 112-112v-672c0-62.144-49.856-112-112-112z m56.576 789.056c0 28.544-25.216 51.52-56 51.52H175.36c-30.784 0-56-22.976-56-51.52v-61.632h785.152V725.12zM896 608H128v-551.68c0-30.912 24.64-56.32 54.784-56.32h658.432c30.08 0 54.784 25.408 54.784 56.32V608z m-175.68-455.296a24 24 0 0 0-34.176 0 23.36 23.36 0 0 0 0 33.6l124.352 101.376-124.352 101.376a23.36 23.36 0 0 0 0 33.6 25.088 25.088 0 0 0 34.176 0l143.36-117.056a22.016 22.016 0 0 0 6.72-17.92 22.016 22.016 0 0 0-6.72-17.92l-143.36-117.056z m-242.496-71.68c-6.72-11.2-17.344-13.44-32.448-8.384-12.352 3.904-15.104 21.248-8.96 32.512l119.296 402.048s21.248 15.104 32.448 8.384a23.936 23.936 0 0 0 8.96-32.448l-119.296-402.112z m-139.968 71.68a24 24 0 0 0-34.176 0l-143.36 117.056a22.656 22.656 0 0 0-6.72 17.92 22.016 22.016 0 0 0 6.72 17.92l143.36 117.056a25.088 25.088 0 0 0 34.176 0 23.36 23.36 0 0 0 0-33.6L213.504 287.68l124.352-101.376a24.32 24.32 0 0 0 0-33.6z"  horiz-adv-x="1024" />

    
    <glyph glyph-name="guizeguanlimobangongxiang" unicode="&#59164;" d="M176-64C113.856-64 64-14.144000000000005 64 48V720C64 782.144 113.856 832 176 832h672c62.144 0 112-49.856 112-112V480a32 32 0 1 0-64 0v128H128v-551.68c0-30.912 24.64-56.32 54.784-56.32H480a32 32 0 1 0 0-64H176zM848.576 776.576H175.36c-30.784 0-56-22.976-56-51.52v-61.632h785.152V725.12c0 28.544-25.216 51.52-56 51.52zM849.536 256c18.88 0.384 33.92 14.592 33.92 32s-15.04 31.616-33.92 32h-148.352a35.52 35.52 0 0 1-30.784-15.808c-6.4-9.984-6.4-22.4 0-32.384 6.4-10.048 18.176-16.064 30.72-15.808h148.48zM699.328 192a33.216 33.216 0 0 1-29.184-15.808 31.168 31.168 0 0 1 0-32.384c6.08-10.048 17.28-16.064 29.184-15.808h214.4a33.216 33.216 0 0 1 29.248 15.808 31.168 31.168 0 0 1 0 32.384 33.216 33.216 0 0 1-29.184 15.808h-214.4zM694.272 64h134.656a27.456 27.456 0 0 0 24.832-15.808c5.12-9.984 5.12-22.4 0-32.384a27.456 27.456 0 0 0-24.832-15.808h-134.656a27.456 27.456 0 0 0-24.832 15.808 35.968 35.968 0 0 0 0 32.384 27.456 27.456 0 0 0 24.832 15.808zM629.12 346.432L474.304 501.056a37.184 37.184 0 0 1-52.608 0L266.88 346.432a37.248 37.248 0 0 1 0-52.672l154.88-154.88a37.184 37.184 0 0 1 52.608 0l154.88 154.88a37.376 37.376 0 0 1-0.192 52.672z m-163.584-147.2a24.704 24.704 0 0 0-35.072 0L327.232 302.46400000000006a24.704 24.704 0 0 0 0 35.072l103.232 103.232a24.704 24.704 0 0 0 35.072 0l103.232-103.232a24.704 24.704 0 0 0 0-35.072"  horiz-adv-x="1024" />

    
    <glyph glyph-name="jiaosezuhu" unicode="&#59165;" d="M672-58.66666667000004h-384a160 160 0 1 0 0 320h384a32 32 0 0 1 0 64h-384a224 224 0 1 1 0-448h384a32 32 0 1 1 0 64zM448 896a256 256 0 1 0 0-512 256 256 0 0 0 0 512z m0-64a192 192 0 1 1 0-384 192 192 0 0 1 0 384zM825.6 515.648c24.768 0 44.8-19.648 44.8-43.904v-102.336h59.712c16.512 0 29.888-13.12 29.888-29.312a29.568 29.568 0 0 0-29.888-29.248H870.4l0.064-124.544c49.28-17.088 85.376-61.568 89.216-114.752l0.32-9.408c0-72.704-60.16-131.648-134.4-131.648-74.24 0-134.4 58.944-134.4 131.648 0 57.344 37.376 106.112 89.6 124.16v285.44c0 24.32 20.032 43.904 44.8 43.904z m0-380.352c-41.216 0-74.688-32.704-74.688-73.152 0-40.32 33.472-73.088 74.688-73.088s74.688 32.704 74.688 73.088c0 40.448-33.472 73.152-74.688 73.152z"  horiz-adv-x="1024" />

    
    <glyph glyph-name="guizeguanlizuhu" unicode="&#59167;" d="M176-64C113.856-64 64-14.144000000000005 64 48V720C64 782.144 113.856 832 176 832h672c62.144 0 112-49.856 112-112V480a32 32 0 1 0-64 0v128H128v-551.68c0-30.912 24.64-56.32 54.784-56.32H480a32 32 0 1 0 0-64H176zM848.576 776.576H175.36c-30.784 0-56-22.976-56-51.52v-61.632h785.152V725.12c0 28.544-25.216 51.52-56 51.52zM811.52 384c19.84 0 35.84-15.744 35.84-35.136v-81.856h47.808a23.68 23.68 0 0 0 23.872-23.424 23.68 23.68 0 0 0-23.872-23.424h-47.808v-99.648c39.04-13.44 67.648-48.32 71.296-90.24l0.384-9.088c0-58.112-48.128-105.28-107.52-105.28-59.392 0-107.52 47.168-107.52 105.28a105.6 105.6 0 0 0 71.68 99.392V348.79999999999995c0 19.392 16 35.136 35.84 35.136z m0-304.256a59.136 59.136 0 0 1-59.712-58.56c0-32.32 26.752-58.496 59.712-58.496 32.96 0 59.712 26.24 59.712 58.496a59.136 59.136 0 0 1-59.712 58.56zM629.12 346.432L474.304 501.056a37.184 37.184 0 0 1-52.608 0L266.88 346.432a37.248 37.248 0 0 1 0-52.672l154.88-154.88a37.184 37.184 0 0 1 52.608 0l154.88 154.88a37.376 37.376 0 0 1-0.192 52.672z m-163.584-147.2a24.704 24.704 0 0 0-35.072 0L327.232 302.46400000000006a24.704 24.704 0 0 0 0 35.072l103.232 103.232a24.704 24.704 0 0 0 35.072 0l103.232-103.232a24.704 24.704 0 0 0 0-35.072"  horiz-adv-x="1024" />

    
    <glyph glyph-name="mobanzuhu" unicode="&#59168;" d="M64 768.256A64 64 0 0 0 128.32 832h255.36C419.2 832 448 803.2 448 768.256v-768.576A64 64 0 0 0 383.68-64h-255.36C92.8-64 64-35.2 64-0.32V768.32zM128 736V32c0-17.664 14.272-32 31.936-32H352A32.064 32.064 0 0 1 384 32v704c0 17.664-14.272 32-31.936 32H160A32.064 32.064 0 0 1 128 736z m384 31.808C512 803.2 540.672 832 576.192 832h319.616C931.264 832 960 803.136 960 767.744v-255.488C960 476.8 931.328 448 895.808 448H576.192C540.736 448 512 476.8 512 512.256V767.68zM576 736V544A32 32 0 0 1 607.872 512h256.256c17.28 0 31.872 14.272 31.872 31.936V736A32 32 0 0 1 864.128 768H607.872A32.064 32.064 0 0 1 576 736.064zM512 319.808C512 355.264 540.672 384 576.192 384h319.616C931.264 384 960 355.328 960 319.808v-319.616A64.192 64.192 0 0 0 895.808-64H576.192A64.192 64.192 0 0 0 512 0.192V319.808z m64-31.68v-256.256a32 32 0 0 1 31.872-31.872h256.256a32 32 0 0 1 31.872 31.872V288.128A32 32 0 0 1 864.128 320H607.872A32 32 0 0 1 576 288.128z"  horiz-adv-x="1024" />

    
    <glyph glyph-name="jiaosemoban" unicode="&#59169;" d="M672-58.66666667000004h-384a160 160 0 1 0 0 320h384a32 32 0 0 1 0 64h-384a224 224 0 1 1 0-448h384a32 32 0 1 1 0 64zM887.936 192c18.88 0.384 33.92 14.592 33.92 32s-15.04 31.616-33.92 32h-148.352a35.52 35.52 0 0 1-30.784-15.808c-6.4-9.984-6.4-22.4 0-32.384 6.4-10.048 18.176-16.064 30.72-15.808h148.48zM737.728 128a33.216 33.216 0 0 1-29.184-15.808 31.168 31.168 0 0 1 0-32.384c6.08-10.048 17.28-16.064 29.184-15.808h214.4a33.216 33.216 0 0 1 29.248 15.808 31.168 31.168 0 0 1 0 32.384 33.216 33.216 0 0 1-29.184 15.808h-214.4zM732.672 0h134.656a27.456 27.456 0 0 0 24.832-15.808c5.12-9.984 5.12-22.4 0-32.384a27.456 27.456 0 0 0-24.832-15.808h-134.656a27.456 27.456 0 0 0-24.832 15.808 35.968 35.968 0 0 0 0 32.384 27.456 27.456 0 0 0 24.832 15.808zM448 896a256 256 0 1 0 0-512 256 256 0 0 0 0 512z m0-64a192 192 0 1 1 0-384 192 192 0 0 1 0 384z"  horiz-adv-x="1024" />

    
    <glyph glyph-name="guizeguanliquanjugongxiang" unicode="&#59170;" d="M815.6576 832c62.144 0 112-49.856 112-112V480h-64v128H95.6576v-551.68c0-30.912 24.64-56.32 54.784-56.32H447.6576v-64H143.6576C81.5136-64 31.6576-14.144000000000005 31.6576 48V720C31.6576 782.144 81.5136 832 143.6576 832h672z m0.576-55.424H143.0176c-30.784 0-56-22.976-56-51.52v-61.632h785.152V725.12c0 28.544-25.216 51.52-56 51.52zM767.6576 320c35.712 0 65.6-25.088 72.96-58.624l1.216-7.872v0.064a174.272 174.272 0 0 0 96.896-124.544l1.92-11.968a74.688 74.688 0 1 0-49.728-140.8l2.432-0.896-6.08-6.016a173.632 173.632 0 0 0-119.616-47.552 173.696 173.696 0 0 0-125.696 53.568l-7.68-2.112a74.688 74.688 0 0 0-39.616 143.808l1.6 10.24a174.464 174.464 0 0 0 97.152 126.336l1.28 7.68A74.688 74.688 0 0 0 767.6576 320z m-320-320a32 32 0 1 0 0-64 32 32 0 0 0 0 64z m257.344 204.736l0.576-0.832a124.544 124.544 0 0 1-60.8-87.936 74.496 74.496 0 0 0 35.52-111.36l1.152 1.792c22.272-21.632 52.672-34.816 86.208-34.816s63.936 13.184 86.272 34.752l-1.408 2.176a74.688 74.688 0 0 0 39.424 108.032l-1.472-0.512a124.16 124.16 0 0 1-51.456 81.92l-9.344 5.952-4.16-5.76a74.496 74.496 0 0 0-116.224 0.64l-4.288 5.952z m211.968-133.632a24.896 24.896 0 1 1 0-49.792 24.896 24.896 0 0 1 0 49.792z m-298.624 0a24.896 24.896 0 1 1 0-49.792 24.896 24.896 0 0 1 0 49.792zM389.4176 501.12a37.184 37.184 0 0 0 52.608 0L596.7776 346.432a37.376 37.376 0 0 0 0.192-52.672l-154.88-154.88a37.184 37.184 0 0 0-52.608 0L234.5376 293.76a37.248 37.248 0 0 0 0 52.672z m43.776-60.288a24.704 24.704 0 0 1-35.072 0L294.8896 337.53599999999994a24.704 24.704 0 0 1 0-35.072l103.232-103.232a24.704 24.704 0 0 1 35.072 0l103.232 103.232a24.704 24.704 0 0 1 0 35.072zM767.6576 270.20799999999997a24.896 24.896 0 1 1 0-49.792 24.896 24.896 0 0 1 0 49.792zM895.6576 512a32 32 0 1 0 0-64 32 32 0 0 0 0 64z"  horiz-adv-x="1024" />

    
    <glyph glyph-name="xitongchushihua" unicode="&#59174;" d="M1013.76 535.31733333a32.448 32.448 0 0 1-46.72-1.088l-25.024-26.88C893.952 686.29333333 744.128 821.14133333 560.448 843.09333333a33.408 33.408 0 0 1-36.608-29.696c-2.112-18.56 10.88-35.392 28.992-37.568 172.672-20.608 310.72-158.08 335.68-334.336 0.192-1.408 0.576-2.752 0.96-4.096a33.984 33.984 0 0 1 10.112-24.704 32.512 32.512 0 0 1 46.72 1.152l68.544 73.6a34.368 34.368 0 0 1-1.088 47.808zM89.472 409.68533333a33.28 33.28 0 0 1 37.184 28.928c23.68 176.896 161.152 315.52 334.208 337.088a33.664 33.664 0 0 1 28.8 37.632c-0.064 0.64-0.32 1.28-0.448 1.984a33.984 33.984 0 0 1-17.344 36.224L383.296 897.62133333a32.64 32.64 0 0 1-44.416-14.784A34.24 34.24 0 0 1 353.28 837.33333333l22.016-11.52C210.112 773.9733333300001 85.376 627.98933333 61.248 447.82933333a33.728 33.728 0 0 1 28.224-38.08z m371.392-416.384c-176.32 21.952-314.048 163.392-335.04 344a33.92 33.92 0 0 1-12.928 25.6 32.512 32.512 0 0 1-46.272-6.592L6.656 275.09333332999995a34.368 34.368 0 0 1 6.4-47.36 32.384 32.384 0 0 1 46.336 6.592l15.488 20.992c49.408-175.36 196.16-306.56 377.984-329.216a33.28 33.28 0 0 1 36.8 29.44 33.6 33.6 0 0 1-28.8 37.76z m465.536 372.032a33.28 33.28 0 0 1-36.8-29.44c-21.568-180.032-159.424-320.896-335.168-342.656a33.728 33.728 0 0 1-28.8-37.632c0-0.704 0.256-1.408 0.384-2.112 0.064-12.8 7.104-24.96 19.2-30.656l90.304-42.432a32.96 32.96 0 0 1 43.776 16.64 34.176 34.176 0 0 1-16.256 44.864l-11.072 5.248c161.792 55.552 281.728 201.344 303.232 380.48a33.664 33.664 0 0 1-28.8 37.696z m-190.016 19.2c0 129.088-102.528 234.112-228.608 234.112S279.232 513.62133333 279.232 384.46933333c0-129.088 102.528-234.176 228.544-234.176 126.08 0 228.608 105.088 228.608 234.24z m-228.608-166.528c-89.6 0-162.56 74.688-162.56 166.464 0 91.84 72.96 166.528 162.56 166.528 89.6 0 162.56-74.688 162.56-166.528 0-91.776-72.96-166.464-162.56-166.464z"  horiz-adv-x="1024" />

    
    <glyph glyph-name="luojikubiao" unicode="&#59178;" d="M874.88 90.94399999999996l2.112-1.472 73.664-69.056a8.832 8.832 0 0 0 1.536-11.008l-1.536-1.92-73.664-69.12a8.896 8.896 0 0 0-14.592 3.904l-0.384 2.56v50.304a211.136 211.136 0 0 0-110.08 45.632 21.248 21.248 0 1 0 26.88 32.896c20.544-16.512 44.608-27.968 70.272-33.472l12.928-2.304v45.12a8.832 8.832 0 0 0 12.8 7.936zM832 832c70.72 0 128-57.216 128-127.808V448.64a32 32 0 1 0-64 0v63.872h-224v-63.936a32 32 0 0 0-64 0v63.936h-192v-223.68h64a32 32 0 1 0 0-63.872h-64v-223.68h64a32 32 0 0 0 0-63.872H192c-70.72 0-128 57.216-128 127.808V704.192C64 774.784 121.28 832 192 832h640z m42.88-531.328l2.112-1.472 73.664-69.12a8.896 8.896 0 0 0 1.536-11.008l-1.536-1.92-73.664-69.12a8.896 8.896 0 0 0-14.592 3.84l-0.384 2.56v45.376c-36.672-5.056-94.336-25.024-131.904-97.024-58.816-112.96-139.2-121.216-161.472-121.216h-2.752l-2.944 0.192a21.248 21.248 0 0 0 4.096 42.368c3.328-0.192 72.128-3.968 125.376 98.24 37.248 71.488 91.968 100.544 131.392 112.32 8.32 2.496 16.768 4.48 25.344 5.952l12.864 1.856v50.24a8.832 8.832 0 0 0 12.8 7.936zM352 224.96000000000004H128v-159.744a64 64 0 0 1 56.512-63.488L192 1.2799999999999727h160v223.68z m335.104-27.776a21.248 21.248 0 0 0-31.232-28.8c-44.224 47.872-87.04 45.184-88.896 45.056a21.312 21.312 0 0 0-4.032 42.304c2.624 0.256 64.832 5.76 124.16-58.56zM352 512.512H128v-223.68h224V512.512zM832 768.128H192a64 64 0 0 1-63.552-56.448L128 704.192v-127.808h768V704.192a64 64 0 0 1-64 63.936z"  horiz-adv-x="1024" />

    
    <glyph glyph-name="yewubiaodantongyi" unicode="&#59179;" d="M903.232 901.33333333c31.36 0 56.768-24.128 56.768-53.888v-646.72C960 22.165333329999953 807.552-122.66666667000004 619.456-122.66666667000004H120.768c-31.36 0-56.768 24.128-56.768 53.888V847.44533333C64 877.20533333 89.408 901.33333333 120.768 901.33333333z m-5.12-755.584H679.68v-207.552c15.808 3.456 31.36 7.936 46.528 13.504l13.632 5.952c11.008 4.8 21.632 10.368 31.808 16.64l12.48 7.616c13.376 8.64 25.92 18.368 37.44 29.056 11.328 11.008 21.568 22.912 30.72 35.584l7.872 11.84c6.656 9.664 12.544 19.776 17.6 30.208 1.92 4.416 3.968 8.704 6.272 12.928 5.824 14.4 10.56 29.184 14.208 44.16zM891.136 837.33333333H132.928v-896h482.432v263.552h275.712V837.33333333zM512 645.33333333c35.712 0 65.6-25.088 72.96-58.624l1.216-7.872v0.064a174.272 174.272 0 0 0 96.896-124.544l1.92-11.968a74.688 74.688 0 1 0-49.728-140.8l2.432-0.896-6.08-6.016A173.632 173.632 0 0 0 512 247.12533333a173.696 173.696 0 0 0-125.696 53.568l-7.68-2.112a74.688 74.688 0 0 0-39.616 143.808l1.6 10.24A174.464 174.464 0 0 0 437.76 578.96533333l1.28 7.68A74.688 74.688 0 0 0 512 645.33333333z m-62.656-115.264l0.576-0.832a124.544 124.544 0 0 1-60.8-87.936 74.496 74.496 0 0 0 35.52-111.36l1.152 1.792c22.272-21.632 52.672-34.816 86.208-34.816s63.936 13.184 86.272 34.752l-1.408 2.176a74.688 74.688 0 0 0 39.424 108.032l-1.472-0.512a124.16 124.16 0 0 1-51.456 81.92l-9.344 5.952-4.16-5.76a74.496 74.496 0 0 0-116.224 0.64l-4.288 5.952z m211.968-133.632a24.896 24.896 0 1 1 0-49.792 24.896 24.896 0 0 1 0 49.792z m-298.624 0a24.896 24.896 0 1 1 0-49.792 24.896 24.896 0 0 1 0 49.792zM512 595.54133333a24.896 24.896 0 1 1 0-49.792 24.896 24.896 0 0 1 0 49.792z"  horiz-adv-x="1024" />

    
    <glyph glyph-name="luojikuguanli" unicode="&#59180;" d="M1024.064 176.32l-136.512 112.256v-79.552h-136.448c-145.152 0-263.232 96.256-263.232 214.592a29.184 29.184 0 0 1-1.472 9.28C483.584 504.32 448.064 571.52 386.368 622.336 322.368 675.072 237.824 704 148.16 704H37.696C16.96 704 0.064 689.28 0.064 671.104c0-18.176 16.896-32.896 37.632-32.896h110.464c145.088 0 263.232-96.256 263.232-214.592 0-3.2 0.448-6.272 1.472-9.28 2.816-71.488 38.272-138.752 100.032-189.504 64-52.672 148.544-81.6 238.208-81.6h136.448V64L1024.064 176.32zM486.144 486.4c36.352 83.712 141.312 141.888 257.088 141.888h140.288v-76.352l140.416 108.032L883.52 768v-76.416h-140.288c-92.224 0-179.2-27.904-245.056-78.528-19.2-14.784-36.032-31.104-50.24-48.64 17.472-24.448 30.336-50.688 38.208-78.016zM409.856 320c-36.416-83.584-141.44-141.632-257.344-141.632H38.784c-21.376 0-38.72-14.144-38.72-31.552 0-17.472 17.344-31.616 38.72-31.616h113.728c92.288 0 179.392 27.84 245.248 78.4 19.2 14.72 36.096 31.04 50.304 48.576A254.72 254.72 0 0 0 409.856 320zM1024.064 176.32l-136.512 112.256v-79.552h-136.448c-145.152 0-263.232 96.256-263.232 214.592a29.184 29.184 0 0 1-1.472 9.28C483.584 504.32 448.064 571.52 386.368 622.336 322.368 675.072 237.824 704 148.16 704H37.696C16.96 704 0.064 689.28 0.064 671.104c0-18.176 16.896-32.896 37.632-32.896h110.464c145.088 0 263.232-96.256 263.232-214.592 0-3.2 0.448-6.272 1.472-9.28 2.816-71.488 38.272-138.752 100.032-189.504 64-52.672 148.544-81.6 238.208-81.6h136.448V64L1024.064 176.32zM486.144 486.4c36.352 83.712 141.312 141.888 257.088 141.888h140.288v-76.352l140.416 108.032L883.52 768v-76.416h-140.288c-92.224 0-179.2-27.904-245.056-78.528-19.2-14.784-36.032-31.104-50.24-48.64 17.472-24.448 30.336-50.688 38.208-78.016zM409.856 320c-36.416-83.584-141.44-141.632-257.344-141.632H38.784c-21.376 0-38.72-14.144-38.72-31.552 0-17.472 17.344-31.616 38.72-31.616h113.728c92.288 0 179.392 27.84 245.248 78.4 19.2 14.72 36.096 31.04 50.304 48.576A254.72 254.72 0 0 0 409.856 320z"  horiz-adv-x="1024" />

    
    <glyph glyph-name="zhijiguanlimoban" unicode="&#59181;" d="M176-64C113.856-64 64-14.144000000000005 64 48V720C64 782.144 113.856 832 176 832h672c62.144 0 112-49.856 112-112V480a32 32 0 1 0-64 0v128H128v-551.68c0-30.912 24.64-56.32 54.784-56.32H480a32 32 0 1 0 0-64H176zM848.576 776.576H175.36c-30.784 0-56-22.976-56-51.52v-61.632h785.152V725.12c0 28.544-25.216 51.52-56 51.52zM448 448a128 128 0 0 0 124.416-97.792L571.968 352 608 352a32 32 0 0 0 0-64h-36.032l0.512 1.984a128 128 0 0 0-248.96 0l0.512-2.048L288 288a32 32 0 0 0 0 64l36.032 0.064-0.448-1.92A128 128 0 0 0 448 448z m0-64a64 64 0 1 1 0-128 64 64 0 0 1 0 128zM887.936 256c18.88 0.384 33.92 14.592 33.92 32s-15.04 31.616-33.92 32h-148.352a35.52 35.52 0 0 1-30.784-15.808c-6.4-9.984-6.4-22.4 0-32.384 6.4-10.048 18.176-16.064 30.72-15.808h148.48zM737.728 192a33.216 33.216 0 0 1-29.184-15.808 31.168 31.168 0 0 1 0-32.384c6.08-10.048 17.28-16.064 29.184-15.808h214.4a33.216 33.216 0 0 1 29.248 15.808 31.168 31.168 0 0 1 0 32.384 33.216 33.216 0 0 1-29.184 15.808h-214.4zM732.672 64h134.656a27.456 27.456 0 0 0 24.832-15.808c5.12-9.984 5.12-22.4 0-32.384a27.456 27.456 0 0 0-24.832-15.808h-134.656a27.456 27.456 0 0 0-24.832 15.808 35.968 35.968 0 0 0 0 32.384 27.456 27.456 0 0 0 24.832 15.808z"  horiz-adv-x="1024" />

    
    <glyph glyph-name="yewubiaodanmoban" unicode="&#59187;" d="M903.232 901.33333334H120.768C89.408 901.33333334 64 877.20533334 64 847.44533334v-916.224c0-29.76 25.408-53.888 56.768-53.888h498.688C807.552-122.66666666000003 960 22.101333339999996 960 200.72533334000002V847.44533334C960 877.20533334 934.592 901.33333334 903.232 901.33333334z m-5.12-755.584c-3.584-15.04-8.32-29.824-14.144-44.16a134.72 134.72 0 0 1-6.272-12.992c-5.12-10.432-10.944-20.544-17.6-30.208l-7.936-11.84a265.216 265.216 0 0 0-30.656-35.584c-11.52-10.688-24.064-20.48-37.44-29.056l-12.48-7.552a253.952 253.952 0 0 0-31.808-16.704l-13.632-5.952c-15.168-5.568-30.72-10.048-46.528-13.44v207.488h221.376-2.816z m-282.752 59.136V-58.66666666000003H132.928V837.33333334h758.144v-632.448H615.36zM567.936 576c18.88 0.384 33.92 14.592 33.92 32s-15.04 31.616-33.92 32H419.584a35.52 35.52 0 0 1-30.784-15.808c-6.4-9.984-6.4-22.4 0-32.384 6.4-10.048 18.176-16.064 30.72-15.808h148.48zM417.728 512a33.216 33.216 0 0 1-29.184-15.808 31.168 31.168 0 0 1 0-32.384c6.08-10.048 17.28-16.064 29.184-15.808h214.4a33.216 33.216 0 0 1 29.248 15.808 31.168 31.168 0 0 1 0 32.384A33.216 33.216 0 0 1 632.192 512h-214.4zM412.672 384h134.656a27.456 27.456 0 0 0 24.832-15.808c5.12-9.984 5.12-22.4 0-32.384A27.456 27.456 0 0 0 547.328 320H412.672a27.456 27.456 0 0 0-24.832 15.808 35.968 35.968 0 0 0 0 32.384A27.456 27.456 0 0 0 412.672 384z"  horiz-adv-x="1024" />

    
    </font>
</defs>
</svg>
